<mxfile host="app.diagrams.net" modified="2024-07-04T21:29:17.677Z" agent="Mozilla/5.0 (Windows NT 10.0; Win64; x64) AppleWebKit/537.36 (KHTML, like Gecko) Chrome/109.0.0.0 Safari/537.36" etag="7tu3-NOrHgmBv9EtQoAE" version="24.6.4" type="device">
  <diagram name="Página-1" id="aGjO2lSn2AmX-pCFVv6I">
    <mxGraphModel dx="1120" dy="1621" grid="1" gridSize="10" guides="1" tooltips="1" connect="1" arrows="1" fold="1" page="1" pageScale="1" pageWidth="827" pageHeight="1169" background="none" math="0" shadow="0">
      <root>
        <mxCell id="0" />
        <mxCell id="1" parent="0" />
        <mxCell id="6CbB4MI8648zA9k0CxYu-25" value="" style="rounded=1;whiteSpace=wrap;html=1;" parent="1" vertex="1">
          <mxGeometry x="439" y="-760" width="300" height="140" as="geometry" />
        </mxCell>
        <mxCell id="6CbB4MI8648zA9k0CxYu-23" value="" style="rounded=1;whiteSpace=wrap;html=1;" parent="1" vertex="1">
          <mxGeometry x="69" y="-760" width="300" height="140" as="geometry" />
        </mxCell>
        <mxCell id="6CbB4MI8648zA9k0CxYu-1" value="Controlador maestro&lt;div&gt;&lt;b&gt;(STM32F103C8T6)&lt;/b&gt;&lt;/div&gt;" style="whiteSpace=wrap;html=1;aspect=fixed;" parent="1" vertex="1">
          <mxGeometry x="343" y="-1110" width="120" height="120" as="geometry" />
        </mxCell>
        <mxCell id="6CbB4MI8648zA9k0CxYu-2" value="Controlador de posición BLDC-Brazo Mecánico&lt;div&gt;&lt;b&gt;(&lt;span style=&quot;background-color: initial;&quot;&gt;STM32-Núcleo-L476RG&lt;/span&gt;&lt;span style=&quot;background-color: initial;&quot;&gt;)&lt;/span&gt;&lt;/b&gt;&lt;/div&gt;" style="rounded=0;whiteSpace=wrap;html=1;" parent="1" vertex="1">
          <mxGeometry x="149" y="-830" width="160" height="70" as="geometry" />
        </mxCell>
        <mxCell id="6CbB4MI8648zA9k0CxYu-3" value="Controlador de velocidad/dirección PaP-Cinta&lt;div&gt;(&lt;b&gt;STM32F103C8T6&lt;/b&gt;)&lt;/div&gt;" style="rounded=0;whiteSpace=wrap;html=1;" parent="1" vertex="1">
          <mxGeometry x="489" y="-830" width="200" height="70" as="geometry" />
        </mxCell>
        <mxCell id="6CbB4MI8648zA9k0CxYu-4" value="" style="shape=flexArrow;endArrow=classic;startArrow=classic;html=1;rounded=0;endWidth=28;endSize=21;width=42;" parent="1" edge="1">
          <mxGeometry width="100" height="100" relative="1" as="geometry">
            <mxPoint x="69" y="-920" as="sourcePoint" />
            <mxPoint x="759" y="-920" as="targetPoint" />
            <Array as="points" />
          </mxGeometry>
        </mxCell>
        <mxCell id="6CbB4MI8648zA9k0CxYu-8" value="&lt;p&gt;&lt;font style=&quot;font-size: 12px;&quot;&gt;&lt;b&gt;BUS CAN&lt;/b&gt;&lt;/font&gt;&lt;/p&gt;" style="edgeLabel;html=1;align=center;verticalAlign=middle;resizable=0;points=[];" parent="6CbB4MI8648zA9k0CxYu-4" vertex="1" connectable="0">
          <mxGeometry x="-0.2551" y="-2" relative="1" as="geometry">
            <mxPoint x="84" y="-2" as="offset" />
          </mxGeometry>
        </mxCell>
        <mxCell id="6CbB4MI8648zA9k0CxYu-5" value="" style="shape=flexArrow;endArrow=classic;html=1;rounded=0;entryX=0.5;entryY=0;entryDx=0;entryDy=0;" parent="1" target="6CbB4MI8648zA9k0CxYu-2" edge="1">
          <mxGeometry width="50" height="50" relative="1" as="geometry">
            <mxPoint x="229" y="-900" as="sourcePoint" />
            <mxPoint x="429" y="-890" as="targetPoint" />
          </mxGeometry>
        </mxCell>
        <mxCell id="6CbB4MI8648zA9k0CxYu-6" value="" style="shape=flexArrow;endArrow=classic;html=1;rounded=0;entryX=0.5;entryY=0;entryDx=0;entryDy=0;" parent="1" target="6CbB4MI8648zA9k0CxYu-3" edge="1">
          <mxGeometry width="50" height="50" relative="1" as="geometry">
            <mxPoint x="589" y="-900" as="sourcePoint" />
            <mxPoint x="588.5" y="-890" as="targetPoint" />
          </mxGeometry>
        </mxCell>
        <mxCell id="6CbB4MI8648zA9k0CxYu-7" value="" style="shape=flexArrow;endArrow=classic;html=1;rounded=0;entryX=0.5;entryY=0;entryDx=0;entryDy=0;" parent="1" edge="1">
          <mxGeometry width="50" height="50" relative="1" as="geometry">
            <mxPoint x="402" y="-990" as="sourcePoint" />
            <mxPoint x="402" y="-940" as="targetPoint" />
          </mxGeometry>
        </mxCell>
        <mxCell id="6CbB4MI8648zA9k0CxYu-13" value="" style="shape=image;verticalLabelPosition=bottom;labelBackgroundColor=default;verticalAlign=top;aspect=fixed;imageAspect=0;image=data:image/jpeg,/9j/4AAQSkZJRgABAQAAAQABAAD/2wCEAAkGBxMTEhUTExMVFhUXGCEYGBgYGSIfIBogHyEgHh4iHx4gHykiHRolIiAgIjEhJikrLy4uHSAzODMtNygtLisBCgoKDg0OGxAQGy8lICUtNS0tLy8rLy0vLS0tLS8tLy0tLS8yLS0tLS0tLS0tLS0tLS0tLS0tLS0tLS0tLS0tLf/AABEIAI0BZgMBIgACEQEDEQH/xAAcAAACAgMBAQAAAAAAAAAAAAAFBgQHAAIDAQj/xABPEAACAQIEBAMEBAgLBgUFAQABAgMEEQAFEiEGEzFBIlFhBxQycSNCgZEVJFJUobHR0hYzNFNykpOissHwF0NEc4PTYnSClMJjhKPD8Sb/xAAbAQADAQEBAQEAAAAAAAAAAAAAAQIDBAUGB//EADQRAAICAQMBBgQEBQUAAAAAAAABAhEDEiExUQQTQWFx8AUiobEUkeHxIzJCgcEGFTNS0f/aAAwDAQACEQMRAD8Ahe0biushr544qmVEUiyq1gNhhWXjnMe1ZP8A1sSvanvmdR/SH6hjOCtSCRea9M5eNuYAylo11cxA4RtJuUbSRZ9NsepFRWNOlwcm7k9yIOO8x/PZ/wCtj08d5l+ez+vi7fdgPmUDGaUqrspkYqxTSWBYkHSAAtxvYAAdNsNfBEmiOxnemIm1ylVOqWPQAoHgYSaWD3hYWbXfthy0KN6UNXdWDDxzmP55P/Xxn8OMxH/GT/1sAXpJL/xbjyGgj9FsORjZstWmkqVYcxZYhqlJjsja0kQqQijcKFG7sOoJIJ6I1shJSfiDRx7mQ/42b7x+zHjcf5j+ezfeP2YlcYyO9PSxPKKiWEyAPG0jgxsVKl9Y2kuCNPYAXA2xy4JrxS+8tKk/iRABGzxuRzU1aGUXuFubX3tY4m4adWlFVK6s4njzMevvs/8AWxi+0DMfz6b7x+zEDiWN5KuocLqDSswaNG0kEkgi++43374sc5mscVMQ6nx0mkFjNpCKqzfRMhWn0jVdgbn0J2mcoJL5eQin1Ev/AGgZl+ezf3f2Y8PtCzH8+l2/o/sxCrGZqJYtJ1JPIVUJZtLIm5NrtvcAm/S3TFh5zncQdfpI21TMb8wz2iaJ121J+L76RoXffrtu3KC/pGk+oj/w+zG/8unv/SH7Me/w+zH89n+8YmV1QPwfoEq6ORCi09jrSZZAZXtpst1D+LuHUdsE+Ec0jTL2jZgCPeNSmYrfVGoQmAKRPdthe1rHA5QSvT4ip3VgJfaDmP57N94/Zjb/AGg5j3rZ/wC7+zEDiiRp5xKq3vDDq0JZQwhjDgAABbMGFhttixaDNoRSQxySopEMKxEymQJKItOow6LQaH3L3N7Hzw5OEUnpBJ77iOePcwP/ABs/2MP2Y2XjuvF/x2o+8Yj8ZanmRi3OkWFFmlQEh5Be51W8Z0lFLdyMHKqSAU1NFTTGKqpWW8wFlcz/AMaUcHUwRiOoFlVrXxT0UnpW5NSvkGfw9r+orp/vGMbj6vt/Laj13X9mIHFte9TUvJ9IyraONmBJKINIJNrlm3c+rHDnkElCEo4mF5aVxMzsl0kaZfEqstyeW5iv4dhExF7YJaIxT0jSbdWLf8PK4j+W1P8AWGPRx3XfntT6bjHHju71WpSXPLQOQS66wLMFkKgyAbeI3PUXNsT+H46YUM8EusVFUGKto8MXKGqPW3Ua3uPCDsRe2D+HpUtIvmurOCcf1v59U/Zpxg47re9bU/YVxN9oNUJY4SWjMiuwVYJJHj5WlbEh/wCKe4A0i217jYYj5K1H+D5KeVyKie8oYKCI+VflozagQz2cWtvzVvbbCWjTq0jeq6s0HHdZ3rar+7jYcc1fatq/7mN+NXopIaP3NZVKRlGRkANgzeJyGP0jG7eoYHbpjfhs0Yo6iGdrTVPhRreGHl+JGkNwUDSbbA3C74Khp1afoK5XVmg47q7ECtqb991xsvHFV+e1d/8A0ftx7xNVlqKnheeOZ4nOgxSFwYyvVxYcsrZVVTY217bXOnB8lGsU61L6WqB7unhB5QIDcxrkaF16CGsfgbbyKhpvSHzXVmx43qTt79V/3f249HGdR+e1n3r+9jziCY+4U6NPTynUraI5YzyAEKhAinWSblpG6atPqcacNGkWnmSdwJKm8SNpBEIUaldzqBRTIU3sdo27YVQ03Xv8hfNdWd14zqT1rqz+7+9jBxpU/n1X9y/twEz2rVzARouKeMMEAADDVcEDYNa18NGVT0Aipo2kQTQsszuyAqTJsVvcluWWiJBWw5UnrYkopXpGrbqyGvGFSf8Ajqu3pp/ex0Xi+pt/L6v7lP8A8scqqrQVlIaiWGRlUCokQhoywd9JJAAfShTUbb6bdsbS5lZZ0qJqWWRqRgHj0MdQkUqokAAZiCxsN7AA2tbC+Xp7/IN+p6eMqj8/qvWwX97pjwcZ1P5/VdewT9uJGf5lA60hleErFMi6YZjIrQBV1kp1jbwqNPhJu22wOIlfmjBzz6ijmLQVUatHoOhTEeWAy7LqawRfiUFhtqwJRf8AT7/IbT6nReNKjvXVl/QL+9joONqi4/Hqz7UQ/wDyxHmly5qKkQSFZVnHvAIF2DheYQQ1xGoFlNu3mScTJlCz6KmnolUx1Ii0abhVjLRt4DpIuoCM92Opu4BA9HT7CqXU1PHM+34/Wf2cX72+MPHE/fMKv+zjH/zxCrIwMrUSrAjB0eGVeUWlVgQUuo5gZLlmLE9LbbYP8O5vSjVIskQnqYdUn0kcXLeMohVXkBVDIdcnQ7AemE1BK1H7f+BUm+SAvGs/5/Vn5xx/v4tD2V5tLU00ryyNIRMVDMADaykbDYdcUlxbVRPWzNE0bIzAjQRpJ0rqtbY+K/iGxNyOuLb9hx/E5v8Ann/CuJzwisVpDxt95RY2MxmMxwHUZjMZjMAHztxUt+IE/wDNQ/40xO4Qocxr6iV2rqtIFkawE7jX4jsvi2UDa4G2wHpG4mjI4iS4P8rg6/0ktjvwPxHNQtKHpqhoyx1Joe6nUfFHcaTe/iXY7XF97dmS9Ea6GEOX6hniHKq2kqqOSOuq3gkqoopI3mZiupxbe/ijYBhuLgjvfYVwfS5lXVEzNXVaU6SNa0rjX4jspvsoG1xfqB8uuecUzV1fQxR008cEdXFIS8ZBYhwLm1wqKCTue/a2IvAvEstC0qvTztGzEsultSnUfHHcaSCDZkuDdQRfe2VSUfM02sN59l9dR1dE6V1XJTyVcUUkckpYrrYG1x8UbAMNwCLW3vgNwXHmWYSyucwqkgSQr4ZTqY9bC9woAI3seoFsd814slr6+gijppkhiq45CzobsQwFza4VVBY7nv2tiD7P+I5KDmq9NMyO2p10lXDDbUuoWYFbArcG63HXYqWjgNrD+d0VdRVdCy5hUy08tVHC6SyXILEGxIsGRlDdha3e+AnBkeZZg8rnMKpIEkKeGYgsetgTcKACN7HqNsMVDxR+Ea+BPdpY4Yg86tKtiXAKC43A0hiRve5v5YMZjxfSUsrQSa42AB2j2YMNitt28umPH7V8Tlgy9wsbk6vbodEMOparFjNsvrqOsoWFfVyQS1cUTpLKSQSwNiVsroyhuwtYgjAvgqizKvaSR6+sjhRyvhmYMx67aiQqgEb2PW2LMzWNXelLblZtS+hEUv8AkT1xFzbimGmfRNzV8mCEqdlJAYdSAwuPXHF/v7lUcWJy2t9ef7l/herFOuoq6jrqEiuq5IJapInSWUkg3BsSCFdGW+9haxBGBfAEOY5hrlfMaqOFTp8MranNr7XJCqARvY4sXiFA3uoNr+9xEEi9iCSbbeE2BF/X1xU3B2dPTUskGmpi5gBZ41HMjYbEqJAA6MtrgEMpBt1x6/YO2fisHeJVvRhkx6JUNlZSV9JX0Vq+qlp5ahY2WVySDsxBt4XRlvuAOhBGA/AAzOvVpXzGqSFTp8MniZrXNib2AuOxvfGZFWNNU0MCCrMcU5m5tQCzyuRZi1ieWAPhBPc37YF8K5rJT0xh/G4Rq1lo0GpHtpbwSALJGwAOm4ZWXbY79vzaeNyNrG2eKvpMwoh7/UzU00pRlkbdSouVa2zKw8QIA73G24r2fnNK9DNJmFSkIOkaXGp2ABNiQQALjex6+mOlDnktZV0MZFRohdn5ssaqZmKsDqEY0x6Rso7gm5vbEH2e8TNQxciWlq2RvENETExvazbEAMrAA7EEEHrg+bT5/uG1jDUfhCkzGjBr55qaaQqRIRqUquoq1tmBFiCLd9ttxnABzSujM8uY1KRA6QFI1OQASbkEBRfyN98brxR+EMxpESKaKOJ3YcxLGQmNgSbXC2sABc3ud+gxB9n3FS0UHJlhmKFgfCt2jcizeE21IbX2N1O1sOpaePe4trD9QcwpMxpVNfPPTTM4s9gVKIWKtbYixDBha++wtuI4CizKuiM82Y1SQ3KrokszkdSGNwoF7dDc36Wx6eJnzDMqQRxSJBFzWBdbFi0TAsbbKBpAAuep33sB/s540Wjp/d6iGYrqLq622BAuNLWuNr3Bw6lp43/cNrD8qV9HmNKpr6menm5luY5uCkbEq4vpPVWBHXyFsQeAYcyro+fNmNXHFcqoR/E5HU3OwUHbobm/S2Ob8TtX5lTcuNkgiWcgtbUzNC1y2kkL8IAFz+nET2dcZLSU/u88FQQGLI8aatIYAlSDYnxXN7/WwVLTxv8AuG1h+YZhSV8CnMJ56eVJmXmNZgY4mJVhexIJVgR87C2IfAUOZVsXvE2Y1UcRJVAjDU5XYm7bBQduhJIPS28eoz+SvzGHl086QwxVGjmIQzF4JLs1th0VQLn572xp7O+LRTU3u88NR4GZ1ZFB0hrErpYqWOrUdieuBqWjz/cNrClZU5hR10cb1800EsNQ6FrAgxQuxDDpqU6GDDY7Y58Cx5lWRe8TZjUxxElUVCuptJsTqYEBQbjoSSD0tuPrs/kzCtBSGRIoaWqEYdfExeB9RIFwL2UBQT0677b+z3isU1MYJ4J/AzMrqBYKxvazFSx1ajcX64GpaN1v+4bWT62rzGjrBG9dLNDJT1EsZawIMcUhsw3GpG0m42Ox26Y84KTMayL3ibMKlI2JCLHp1NpNixLCwFwRaxJsencTW8RNX1jGOJ1iho6oICPEzPA+ota4F7KAoJ6euJXs+4wSClFPNFL9GWYOoX4WN7aWZWYgk7i9rgYUlJQ3QbWTKytzGjqnjetkliakqJonIUG8cb7MLGzowU3Gx2PmB04NizKsiFRNmFQkb3Eax6dTAEqWJYWAuCALEm19sBa/P2r6qYpE6xRUNSkYI8RLRtqJtcAk2AUE9B3JxP4N40gpKdIZ9QXcqyrdlv4irobEgG9nFxYgG1sDUtO639BbWda6uzKkqJo5K2SaI0c80LkBTdEYDUttpEcDuR0Pew24Mosxq4RUTZhVIj30KjDUQCRqJfYC4NgBva9xgNX8Te/1FQ6IUijy6oEYa2ogrdma2wJJGwJsAN+uCfs+43iipFglSQ8q/wBImgjSSWAsWVja53F/XtglqUd19B7WbVVbmFJPUxSVssy+4yzQudr28IJX6sisCLX8j3tiXwbQ5jVwiomzCojR78tU0liAbaiWFrEg2AG/W4vgFmGevXT1UixukUeXypGGG5uyszG2wJJ6AmwHzwwcF8XQxUyxOrssY8LJp1AfkvGWVtQ6BluCAOnTBLUo7r6Aqsg1eY5hSzVUMtW8qrRPPDJYC/iVASpB0urBgRc9fUYl8IUWZVUK1EtfOivvGqKhNugZiw72uAO29xfAXMc5eunrJlidY0oXijUqb25sbEtbbUxLGwvYDva+GDhDi5IaVIZFciNbIyhS2nqFZGZWBXcAi4IA3GCWpR4+glVguqzbMaWWrhmrGl00Znik0gXvJGobSQdLjxKRc/bgnwlQ5lUwLUTZhOiyLqjSNIydO9mYsADfqFHYjffCxmucmsmrpxGyRpQ8tFPW3PiY6iNtRLMbDtbyvhr4L4wijpUicFhEtlZCl9I6B0Z1ZXA2uLqbA3HTBPUo8fQFVgipznMaV6yKarMmilWaKTQouGmiQNbT4W3dSDfe/XY4NcJZbmdVTrUTZjNGJBqRI44yQOxa43v10gdO+9sJ2a54a1swn0FUWljjjXqdAqY2uxG2oksTbYdN7Xw58GccwR0iRPqbkoFDppN1HQMrOGWQDY9VNrg74J6lHj6DVWLWfVFaiV9LV1HOVIYZI20gBg08WlgALg2uCp6EHr1w7ewz+Rzf88/4ExXmc58a38IzadKiKCJF6kKtQhGojYsSSTbYdN7XxYXsLP4lN/zz/hXGsr7nfr/gyVd4qLIxmMxmOM6DMZjMZgAU+PuC0zCMMp5dTHvFKNiCNwCRvpv3G4O47g/PmZZhmUEzwy1NWsiNpZTO+x7fW3B6g9wQcfViyqSQCLjrviquKKMScQBdCNqorkMBa4Z7E3BA6Dc9sb4sulNPciUbexUBz6vH/F1f9u/72NDxLXfntX/byfvY+h6KnyxgS0MQax1IyL4bXvqFtht1Plj564yp+XWTppC2lewAsANRsAPK1rY1xZlN1REoteJ4OKa789qv7eT97GrcU1357Vf28n72BN8bQUzyOscalnY6VUdycbyUa4IV2WH7Ks9q5aqUy1E0qJATpkkZhcugBsT1tffEj2kcRxrUH6asjqBDEwSOQCEkoreJdmub2Jv0tjb2QZJLHLVCQBTy47EFWBDFzcMpIYeHsexxI4uySOprJY4oZpZl5cbkRJy0PLQC7l9WmwvcgWx8vKcPx+aT8FFfRs9KEbxxQ01HELych1TS19RGq43Ugi1txvgbxFmWqGB5BOJXklKrARpCgxoDICVOkBVuwNhdvMYnUuWuavSUVAkFwSL9WtsR223HoMR+OsqirTToiSuUDoCkalV+k5XjJYaRqQ72Ow+QPl/C+7UpSriP0bbOjMuEiZnucTNHHylJaRZHCKxUyFEuq3BDWJN7DrpA9DVvFnEVWlSyrV1KeCMsnOf6NzGpdfj3sxI3Nx07YumvyuGRY1mjjfQSU1IDY7bi/Q2GIv4FoE291phYajaBTYDubKbD1ONPh/xfB2bDHHGDk99l639jHLglOTd0ik8vz+tYn8bqX2+DnSAsO+g6/jHUDvv16GQ+fVrBQtdU6iPo2EzgSgfVI1eGUeXf7ibQ414bpVoamVKWBZEiLBkiAYEW3BW1rC/b9WKiSJnjDtGx5hItawmK/E0Z6c9bi9viv53DfUdh7Zj7Zj73Gq8Gn4M4skHjelm0PFteL3rKo9iDNJ+9cHHan4trjq/HazYXuJ2NvXSW8Q8x64F11iAxJYn4ZANpB/4h1WReh8/uJhOL9Db5Kf8AXbHoPS1wYbp8jHU8VZi6mRK2rVgLyR859h+WgJ+DzH1fl00/hvXuq/jtSrA6Sec1iPM77N8uvz6waQlUUs5sh2ex1QE9CQd2ibuPXzPi3kpkuxMdtryKn1O4li7NH3K9gfLdc1GPQts6xca5ketdU9R/vW8/ngll3E+bS2SOqqGaR9CXlI8Q30glgASPPr2xEpcr5z6igbw6pTHvrjBAaaNQQRIoNylt7Hb4hhqEIReRp941oupEJ/HYhfTPTnfTUx2BYeh62OMsmSMVSW5Si27OVDxNWmBVaumVgWapAdmqAVYqkUUXZSLEydLkgnwaWFZ7xFmcEioa+oZXUOhDSKSCWUDSyqwN1I3UX2I2IxJzTiXk6SkgnqdIBqFPgliZbFZEFmEoIUNfclQ2xtYdwpWIHdnl5dS3w1UrXWBAp1FQQWaZvhU9RcWt3iORdBuJ2rOIczhkaGeqqFkSxdRM7FbgEX0yWB36djtjROJ665Jq6v8Ary/9wYKVGXrInJ5RjsDJHC7afd1bTqqa2S28jixEfYFRaxAKYylHCuulDuG5Z8SX2dVYglT1HS+NscoyXCsiSaGGTiTMGH8srF+RkP8A+zDDFX1ASB/fc0lM5KpCjlWDILMGckjSzldJC7ISTuN66EviIHKABIDMpFxfy3+7E+jzeeJlMVRChS4UrqGkN8VvDtq7+eKlFeH2EmMVdmWatUtBS1NdKpayHmMb2HiAewVgDca9gQL98FDHmKXE2byq46rGXlt6FtSrf5Ej1wW4ahaOm94k0mSZQ80qrYlT/FIDYEXUBr+bDywy0/CkE5EtTHuuwjSyLt22F7A3F76ibkm1hjklnUdkl+RqoXuV7UDOlF462aUWuAkjB2HorAXPoCfS+FuPi7NWJVayqLAFiNZJAX4tuu3fyscfQseQ04TRECnkCSw9Lgnfy37dLbWqz2pZKIGjrISVdJNLsPiJ2tc92Xpc7lXW/e948ym6pfkJwaFRuJs2CK7VVUEa1nLEA3vax6G+k/diZknE2YzzxQe/VC8xwtw17X9Li59LjGme1Us9I8ryRKj1IeCN5AJBGOcB4L7KNQUWAA0nADLWeOYOkkSujeFmbYnp1ta3zxunCnsrMmpX5FjCDNGcImY1IawJSQaHTUJdOtA7AamjCixN+YvyPaegzUR6kzGpduWWsAApdW0tDq5uoTXBsNHisbd7IGVJPEHEE9OgbSG+lUX0Orjra/iUfZfzxtm+YVEckiVCRO0qAkjSw0uTMNFiY7l3JuQfS29538Gn/ZFV1sMw12duA3NrVQtp1uzogN7WLNYA38Pz2xDreI81gcxTVNXE43Ku7A/PfqPUbYd8po48xqpY510tGSsTBDZo12YPvbVcKfEAbA+Z1eZjGPeaIcrSEzGNIywNyhRWYi+4QuCQOm3QdBMM6b3ivyCWNpclfnjivH/HT/2p/bjz+HOYHpXT/wBphv4fz3MJl51RmDxREsEVYY2kk0/EVGiwUGw3uTYi3fEfiSsrPc6yOapFXGUheBxGqn+Ns90Aurrp3W5sO++KebHdaV7/ALAscquxZHHGY/ntQf8A1nG38N8x/PZ/62FhhJ2ZPu6foxrHzCwGpdyB95+XTB32P/qHdy6jLmHFNXOnLlqZZIzYlWNxcG4+4i+Lh9hhvRzHp+MHYdvCuKRqsuljIDxHpcMlmVhe2xW46gjzvi7fYXtRzX2+nPX+gmKzNPFsRBNT3LJxmPL4y+OE6T3GY8vjMAAyemSXxPGpsSBcetr/AKMLOe5lltK4WdEW/wATcu4Ty1Hrv6A4bIOjfM/rOA2a8M09QxaQFrizA7g/f2xm3uNELLJssqW0QiF206rBCNtt9wPMffgmOG6X+Yi/q44ZXw3BBKZYwwbTo3OwBIOwHyGDQxOp9R0VN7YaSiipHVBCs14yqi2rZrGw69GN8U/kWZCCoSRgSo1KQOtmUobX2uA18WP7V+EZUkMiKsnOleQBR4lG7Ne+1t+oPYbYquGld3EaKWdjpAHc/wCu+OzC1oqzOS3Ly9j8kRppFiZmEbCPUyhWb4nvpBNlu5A3PQ+eD+VcLinmaWOontI+uSNihVjYgXOjVtfse2Kj9mtHLDXtFICt4i2kMCD4lCkFSVPU7j1xbFS+i30hUnp4sfEfF45MHa5OMv51b28OD0+z/NAI81RVuCQDyUAuevikJt+j78Rcu4aSGYzRSzDUxZ0LKyNdmbuuoDU7HYjc4iT0DMys51Hz9O2NlpQDp3v1IAJNha526DcXPqMeVGc0/wCG3uqaXkjfQqDVd1XEA0GtmuzAMNLAdx5YnmKyqBj0zKpsTv1sAT+rt64yxOcZ3DnyE600QeNZVShnkfXo5bK4RtLEPZfCSCARfuDig6nMdVJBDrYvFNKwBJ8CssOmx6DxK5sO+/fF88fIDllUD2hY/dYj9WPneeikRI5HRlSTVy2IsH021W8wLjf1x+if6exwXZk172PH7W3qMqKjWbsBq7kbaj5mxtf1tvjktr9L/af24wLjzH0KijjsMqwOllawHhVn30X/AN1Lt4oz0ViPn3AkZfRNIyop5QDhA7k/i0jfCGbvC52F/P7WG5NHI8qpGhkZtigF9a9WFu+w6dfLe2HeBVQRpTAS8xSkOoECuiv46eX+bnivs+3QdAVxw55aHSN4fMrZqumFdK3hMb9Bo5lHUFQSSfrUUoG5+EAb9AMDs9zP3ctEgVZ9RZwosKWS6sHpJFbwxSqd1+XyHmZ5yKeywyM04XliU31RR+JXpZkcEPoI2f5dsKSoALY47NjcXYkk3JJJPmT1+049YFd8aK2Oha+5OEMZskzPn2ikAkkL6lVrn3qUsNJqpGbeGIbhfn5kGZmNOk6+IvJqbQJAAZquZV0hIb7R0SE7sPD0t2CpLC2GbK845g0yOyvo5fNG7tCi2WmhUKdJkY7v13N7i4Np+ImhbrKZ4JGViNSHSWQ3W46hWGxIOxIxOhnZtgSCehNQq2+87fbhmzOiEqukwWLkizkBuVlyAs5jQf7+pktud9+9rlVCdDA/KnpxcgEq91cBhdTcHwtYg7g/LHVHJqXmZONMvfIJmakgRlI8UCMD9UCOMsGPf6w+3DbCToXzIB+ZIucVxwSze5UgvsfF89MQH68WY1vLptjy8nJ0oiNcG4vfCD7Va0Kzo6q0R5UjodtRMoU3I3+Ff0YsRx6d/wDXbFW+0uo01bFiAqimAJGykyTnUbgg6bK1j+Th4luKQj+0PKY6aSKNCbpHGCGvc6gxJsT0BFvCoW5PTpgKlRIwFiAPRR6DyxJ43rpZZ4nldncxglmcNquzW8QAUi1gNIANr23xBHw7fbjdkkla9yro+lhYgHQt/vAH34Ya7LKZculmY86blRhX1G0RJA0je1wvboL22IOFRh3t92GavzdoqJqYiUrLDHYWUINSK+rVp1F7r8F9JBJO/WoJt0iZFqeyJ+YlbKygP70dlvtdEJW5UE2JN9uvTtiPx1ZM0y2NI7aplkZ97EhmAB7X3J63xpwFmEqVOYwRopAqmfW2r6wFhYAeXUt326Y0zyueeuouYoXRWrHpDEi4jDki4BF9Vrb9OuCH83voJrYTYMzSWkhSecK0F0EhXmWU2HKkVSHVlYWVgCCDbr0H51xCZ4ZgY10UwRVKXTVqJS5B1EHr5fLDTw/LmVUsk8uZtTwCQop5aMzEHT30hVvsCSSbNtYXwvcayVfJqI56wVkWmN4pFAH+8swZbXVhbcG+1jffA1FMpNiEz9d8ZTSgOrE9GB29DfHM0Z/KX7sbQUZ1KAVuSBb5nCVDHRuOCHukUhGx3l07/wBEBgB9uLL9n8b5lTySGSSHTJosG1XsA17+G3xW+zFNRZLMSw0Hwx803B+Hbp5nxDbr92Ly9idM0NLPHKNDCa9jbvGhH6/sNwdwcb5cONRtGMZycqYabgxu1VIOx6/v7fZjb+CEn53IPKwIt/ew08weY+/Gax5jHNpRtYNyfKWhHimaQ20gt5XJ33Nz2vjzBQHGYYiFD0b5/wCZxzbHWIbH5n9ZxyZe+MZclI8VcdFxpfG18SMrn2zwB46e8c0n8YdMRsRZepP5A74pTJqpaedZJFbQQ6EjcgOrRkrc2LDVexP674uv2yKDHAClQ+0htT/ENhu2x+jHfFEVQGrYMu56m99zv6G3rjs7PHUmjObosH2f1VIZFSPnF6eI/SMgCuhlV2uoLMGUmw3Nxf0xbBpWbUNRAZdLAW3G/pfuemPmaCd4nLwySRnoGVirWPUEqcSv4Q1vasqv7Z/3sed2/wCD5c+RZcc9LVrrya4u0xitLR9BcQ5jHTBDIxFzbYXNu5t+SL7n16Y7QUrl9QYi4tcW3Bsdrg+Q3GKsp8r94hBarqGlWGOZwKh2c601ldDJpXVfSpVmNytxucCQJVgjqBLXFZNCiFJ2uuppVBvbcNy/CNPU9fPyo/AJQ0yx5KkuXX2Oj8VaprYurPc2ipuWJLi5sLC9gLAk/wDhFx6+nXG4pDIW3bS40mx6j5/5jFNchS0ccktUWNY9GXE530FLMAdhcvYi+w3GFGHNqqwtUzj5St+3GmP/AE7JU8eSpLl0Q+1pKmj6R4vh5lFUx6lQvC/ic6VG3Vieg9cfP+Y1qtTU8Gos8Mkxbraz8oLpPceBv0eeI0ma1LKUeonZW2ZTKxB+YJscRLY+i+FfDH2PG4OV73wcOfOsjtI8GPce6celceuc1najrDGb7kHqAbHboQfqsOoP6wSCfreI1aNygBmqCeeWRdDWI5csdjeKcW8Vti1zvtZXZfv7f688MqcKEU7+L8Zhu9SrEKlNHvpVjvrmc2sq9NwbHHB2tK78TowgIuSSSSSTck7kk9ST3ONTj0gjYgg9wRYj5g49jO+OI3NAMdCBfbfzxuEGxPTHrKF73B74ANGOOSvY7Ei3THaVbduvTHEjAAdpOIgkaax9NGbU9wNAZyTJLLqvrlF/CSCB1I23gcU5O1NUspmSdSTaVXDXNgfFvcPYjr17YK5Xw3rRRIzrNUIDTLGFZZYz8diekiEbpdSdwNzupyoQ+k28JtsPLbG+LkiReXBIApcvG/iilPTbbSOv24seQdf9fqxXvCEVoMssB4IiD/1NDYsB13P+v9HHDPk2Rr/r/V8VB7Yuspv1mhT+qkrfZ8X+u1vr62xUvtQcfTlgpUTAm5s38TELx+bgvfysGvtfF9n/AJicnBWnEo8VL/5aL/PHO+w3OOnFDAywab6RTxBb2BIttcAkD78cFU2ucbS5JR0mOx+R/Vg3nFI0ogRAzN7nC2kdCNJB2vcnddl3tfABz4T8jg5m8SNJSrJJy09zhu5UsFPKuLhQTYmwNgSL33tjXDyTMPScaROwcrWoxPiSOr0LcKo1W5V97dD0tgrkeYtLV0UfutVHpquY8k8jSMTo0AFiigAbfowsR8EVBOlZKW4O6moQMCRexUnUNiOoG58tzP4WyGenr6KR3geM1IivFKsnisTY6em368aNY0tmR81hHLKu9E9FNDUqgkMiOsRPdjpYWvbUzWI8/vB8R5tNLTSq9PojiVVjfQ8eq5030uTvv28x06YkZbxhmcod/fnCxsLg6FuCSPyRt06b44Z3m9VV0tUJTOwURlFks1vHdijKi600gG9th9+OZrc1TEdn3O4x0ppQHUmxsQfnjm1F/wCNcbU9ES6gFSSQAPP9GBUMaY+IIVFxHKX8tQC3+YN7fZfpixfZxw/DmMEkrmSLTJo0hgR8IJ6r5sbfIeuKvquG6uJVZ4HAbpYBj57hSSp9GAOLr9h0RSjmDgqTOTZgR9ROxtjoy48ahaMYzlqphSP2cU63tJJv5hD9ouuxxkns3pz/ALyQH00/sw56x5jGax5jHLSNbBeQ5ElKulGZvVvnfoLD9GPcFAcZhgQ4+h+f+eE7i3i56S8ohDwR/wAY1zcEtpFiAbC5HbvhomnsSEV2Fzfwk2N/Qf6thezLMKM1CRzrGagC6I6HXY7XAK73Pf54zcXY0zThni8VczRchoyqa76w17EDsB59cM4OBcdZEhJCaT9a0ZHTzOntiNFxbSPcJOjEGx0kmx8jYbHC0t8IdlSe1LPqh3KOzJy5XVAFKXS7Dr1ZSAN72OK3d7nvv2v/AJnFwe2rMo3pIwLFjOpU2PwhJNViR2LLt6jFNSG23347sG0ODKe7O1vn94xYHs24fp6qGQyQ82USELdiNgq7bMBuWO+52xKyLgikkmgvGSplMbRtIfHaOVtiNLXugPh7YfOEckgpKyRIY+WNvBqY2JW/RmJ6D9Axjm7T/SrKhj8RfzOj5ZSneFrRaSkfPlIQj4bAPYW7WtbscdYKePUZSXErLZnE8gYjyvrvYdhh1zRQauPYbug/QxP+WGPkL+Sv3DHNbfiWU2nD9PdRHEos2tbyMLNt4h9Js2w367DHuV8I08rFPc02/JL39Tu/Tp5dcXD7sn5C/wBUYX8hiAqpyLCxYADy1dh26YpSkvETplTZlk9LS5kqtEoiFJJK8bDWA6pNuEdvFvGpClup64nZxQR+68ykpI5bt4nSmRg6GKIl7liaTdnsFv4lbpa+Hfibg6jrKl5Z49brHpFnZejbfCR3JGEbibgXLIKWaSOSTmqrEDmqVuL7Wtc2YaCCb+p79Uc1tLczcAh+Co9E0ookVwp5MHucbyrZ472TUUni3sJ+oGrrhLzqqvQoHp6aOY1EschSFI5FEYiYC4W6+JmBta427YV1jHkPux6bDsPux3LA1u2YPJZ3y6uenkEsZAYbBmCtov8AWUHbWOx7YccukRzHJTBQUJeJJGDiMAgyVFa9tybXVeosCPVEd722G24FvPudv0Yk5ZmBibccyNiGeJmISbTcrrAIugJvbGWXFq38S4Toas1ylasCWnDmZt9DbzVLE6pKh72WOm7K1gOxtfZQje/TDuk/MXnq7OZDy2IGl6pyP5NGgPgo1FlY/d2xH4hytZ1knj0LJCdE6rYRo1wkVPAi3MjC3x9D+rhao3TFS+NlIHbbGmkqSGUhgSCpFiCNiCD0I8sejewA+Q9cSMyVhcjt2wzZPk4gUzThxIovpS4lp9leKoA3ElP2Y2IHrjbh3KBHy55QheRtMCvpMbOpKyQTq1jGzA3DHYep2wSRuWplLSJyPCpteejYDeB42b6WisTbfYHe296SFZ7Oi3fnKhaU62iRgFnJJaOahkA8D36p3vuLmwr/ADbMZJ5mllN3OxOkDptvYC7eZtc4ZK2oMpZSg0kF+RGTy2Xc82m1E6HXe6fO4+JQPzSASgMSDKRdJRstSo63/JnXYEH4tr72L9EIad2Q3ZdHD8+laODT8MMBv6WRbevQ/dh5nG+KsyjOZHmpTYcsQIFsOuhQevUm36sWqCrAMNwdwcedJG6I6jcetsUf7W9+V1+knlAt/wCFIUP23sPvxeVSQqk9+gHqemKR9o8oVqRmDMnNmlNgNw0wdRv8JsvX1xeFO9iZNCPxXlE0EyrJGF0KiErexNtV7HcEg3tYbYhLKMMHtBzw1MscmgxLIiy6NeoHqqt0FmspFvK2FynRSN7newt/rrjZ2Sjszrba/TDHm2VyijaokVE5aJT6WVmYkKoBDbItgL3Uki7A4VQVDix6f63xZ3Eedwy5dHRMuiTlxTKzyWDEqjFmsLeJSbC/UW7YqCa4FKgpwLlokrqrVCZkV4iCGC8u8YN7EjVqHh+wHEnOlkFVQK8fKPv0DKmoMyrpYeIqSNRKt0PS2J/sjMmqtFRp5oeK4vtvEun+7pv64l8dkmuy7Qo5ZqEuwI8LgOVBFrm66vQW9cZpNSHdopDL6/lKVcHUCbWA+RF+/wAsGq7iiaemlMkEarAEC6QRfUSl9779zbvhh4fqcxlgaqqczqIoQxUaAGZiDpJAJAAvewAJOltrC+B/FwqjTVCSVj1kZWKSJyCCLudQaM7o4ABKntY99qk4tgrorp5Bc7jG1NNaRWB3BBG/lvjQ0Z/KX7sZFSnUACCSbAfPbv0+3AqGPJ4zCKvLR2J6qSFC/aAbm/yxYPs5oPwjBJK7NFpfQFGlugDdSg28VrYqWo4ZrIiqvTyXI+qNfp9TUB8ji7fYfTPHRzCRHQmckB1Km2hN7EDb1xvkxY1C0YxnLVTDJ4FTtPIB5WFv9ftOPV4JAP8AKZPkQLf/AMw18weY+/HnMHmPvxy6UbWDsoyjkEnmF7qF3FumMwTDDzGMxQj3FIcZ53SrnrySOdMUAiLINVpASbWvva+++x2wd9qftDaAmipCecdpJB1S/wBVPOQ+fa/n0pU5TUn/AIec/wDSc3/R1x14ez2rltZjPJvUS319oWWgHUZySP5o7nbza1uv34qDM6i0sjRSOqu7tZSV2LErcDvbGjZVUDrTz/2T/u4wZPVHpSz/ANk5/UuNoYceN2mQ5TkD6uZm+Jmax21MTbb1xxZLt9n+WCL5FVnpSVFh/wDRf9Phxucgq9X8lqNxt9C/l/Rwm0VTIEQsdQ2I6W7fbiy/ZJVNGJZra35qr4juRp6X62wjHIqnr7rUdP5l/wB3EzLWzKnVkiinRXIZlNPqF7WB8SHe3lhZoKUaXIQbTst3N6ycys6oQWIZbajYqABbp5dPU9saNnVeP944+wf5r0xV8mZ5md+XIfO9In/axoMyzTpy3H/2af8Aa3xyfhWvE17zyLUi4hrgReRrd7ov6PDiZlOaPHK8hjJ172vbzJ3t3O/6sU/+FszG+h//AGif9rHsOZ5l/NH/ANlGf1w4f4V3yHeeQW9qeYMa5ZFdkZoFuFci3jkNjp+YwjMik3Nrk3uSSSf24M5lFVzSGWaOdnaw2iK30gKAFVABYADYYiLlVSSfxepIv0EbG3oTp647IwUEkYttsKvwdMsixPLSK5bQVaqW6P8AkOL+F/TzBGOdbwhUpLDDaJ3nYrFy5Q6sytpYXGwKnrfpg/mlW8iQ2pswlaKdH5k0K8xUUG8epBqkBNjdrW0jpfBXKuK5IQoOXVbFJ2mjJiN05krmS3mTC5X+kAfXGeuaK0oRKbhiaSBJ4zE6ySLEqiQazI5sqlexsC2/RRfHen4NqpJ0gjEUrSxmRWjlRkZVJDWcG2xBBHXBukWNaY05pc15cvLMycu6IylC7xX3MjaNI1abK53NgMRuJua0ySUUVdCiJylQwmIxJuQqaGZmBOosx6k79dnrlYtKoW8urJKaRrFkJBil02Dab2dFYg6WNrah0w5UdVstTA8cBhXwOAWjy+NrjSbr9LVSkkW3Nzt6JbZRU3F6acAecT/swSyaOoh3FNKzK2tQ0LMuoAgFkIs1r3B6ggHzBWTGpq1yOMnHklcUwU4VJFvTytpUUxBZlWxZpZ5Dcl3JBUW+G3lttwpRwtrdh7xIlwaZNQd0K35kLj/eIRcqR0+dsB5cvqnZmeGoZ2N2LRuSxP2Y9gyyrQK8dPUiRW1h1ikBUj1At1sb4h4Ipc7jWRt8DvJOLGoneOXngKZWFoMwQbBZLKeRUx267dCSdiSu5hmbSMpeRl0Hlxs1jJTMLjQxABlhIFr2O1++zD8zNbK8jSQyqZCC0aROqkjcnRa1yRqJ87nEAZbMdWmGU+LtGx8/TFQxJK2EpMmtIzgCJAoLeHeypKNzymv4dYGyH7OgI5zZkvwvEQD/AByg28Q2DqLfRyDv2PlYkYIUlFO4JFNLqtaWMxsFmUd128Mo67deo3uG2ky2ujZXhSpkjboDGx27pIluvYgizDcdbC9hbj97O6uOSmELONce6SAb6Qdnt+SLhXX6psTswOHujkmAFoywIvqhZWRvUBiCL/diiqOiqYm1wQVkO4YLyHblsO6Nselx52Ok36k/TcTVYvzKTmE9X9zkRmPm3KkUMfsxzTwXui1MtmqcG6yMA+knQWGrT3LadkTzNz8+xqDi+v8AeJ3CxuYlsoJpEZm033DlgwViTttsehxpmGZ188TosJCfE0C0rRK/mepMjDrpYk9x0wsFJx1ov/wP+zFY8Sj4ilJsMUlfWIABLVoB4Qiw+FR20jmi229gABfbE2LNa7tJXEjc2p2a3rYTG3zwuyZS8qa44JEkUeOPQwDgfWjuPiA+JPtHcYJcNVslLDUaqaZ3d4WRfpkto5t21R2OxZfCTvf020aVeAlZ6vElQAJPfqzSTYNyRpv5BuZucQa6aWZnqWM9QyAiRpICyrYdGIZgLC/W1sMubVs1RF7xBNMkwjQvSiJgodHVi6AjSAGvLtqe/pqtxpns9fITNy6lqgGHkTBnVyWiZGA0qWNg2u3hBG4NsLVS4DSPfDFlqqyTmLHaWIDWVVSDBHcbjV5dCMeZjF+PUpL671kBDXUgjlVJ2KqAd9t7nbrir6evqwqCSgjmZRpEktK7OR2BYWLW6C9zbbHstTXFo3jpmp+W2qNaenaNQ/dzsbvba5J222BN8u5bfJVpDHw9Uo9KaeZJFEcsjI8ekkAsSQ6N4rXNwyg7bG2IOb8RPLDUDkLyqdFVCQVLBm5YLDUwvuTse2PF4lzv+crT/wBI/wDbxBzvMM1qYzFOauSMm+lomsSNx0Qd8X+F3ttE976idfc46UbWkU3+sN/Lfr9mJZyOb+ZmH/Tb9mPY8qmF/open823Xy6dcD7O14j73yGmo4vMZHLWOUsLuw1qvXYDUoY+ZuAPn1xZPs1AzCCSWVeWUl0DRax2DG919cUh7nIoBaN1HTxKR+sYvP2Ej8Sm/wCef8K4rN2fHGFpEQyycqY1nhSH8p/n4b+XXTfHp4Wi/Lk/u7f3cHsZji0o6LIOXZWkN9JJuLb2/wAhjMTsZihHzzmjf/6Rb/ncX61AxvwPlNbWtK0lfWLDE5Tw1D6mI7XJIG1u3fEbP2txECPzyH/EgxP4VzapoXnU0VS6PIzMoie9wSAyHTY3WwKkjpcHy7cl6FXRGEOX6hWsyipo6+hdK6skp5KlInSadm3NyOlgyEKdiNrd77A/Z/l9bmAlkkzGsjgRtPgnfUzW1WBJIUAEb23vgpNxDU1tfQoKOoigjqUkJkia5N9NztpVVDHuepJxA4FzabLxLE1HUyRs5LKsbBgy+EMl10kFbAqSOlxe9hlUtPvg08QxNklRR5hQutbVywSVCxMs0zNuQWHSyspCnYgWt3vhb9neS1eYq80tdVpCjaPBM2t2sGO5JAABG9j1wdn4jqK3MKFFo6mGnjqEkvJE2pmvpu22lVVS3c9Tf0C+zfN6nL0ljloqh4mYMQsbB1YAKSt10sCNipIOwthfMoh4h+bIp6LMKFkrKqWCSdY2SaZiQbFh0srKQD22t3vgD7Osmq69Gmlr6uOFToGiZ9btYMdySAoBHY7n0wYfiGorsxolWkqIqeKbmEyRnUzaSAWIGlQASBv3OBvs7zeehiaN6KqdGOtlETB1cAKSl10sCoAKkggrcXvs/nUfd1uG1hubJZ6PMKFkrauaCSbluk0zMQdJYXtYMrAH6otpPW+F/wBneV1leryy5hWpEpCjRO+p2sCdySAACOxvft3NfhyqrcxolFHUw08Upe8kTAsxQgFjbSoA2G/1j9g72e5tUUMLRPRVTofGyiJgysAAWQldLKwAupIIK7XvsfMo++Nw8QvLlVTRZhRMlbVzU8spRkmnZiCFLAGxCspG48O2k9cAfZ7ldbXoZ5swrUhVtA0VD6nYAE7kkAC47G9/TBhs7qq3MaICiqYaeJ2e8kTAsxQi7G2lQOgF+5wO9n2cT0MDRvR1LofGyCNg6vYKSmpdLqwAupIIINr32PnUffG4bWFpctqqPMaMrXVc1PIzqyTTsxDLGzWPRWBFiDbaxvgLwBlldXRGeXMa1Ig2kBZ31OQAW3JIAFwOm5+WJ7Z7U1uYUoWkqIqeIyMOZGdRZomF22sAOgAP1j5i0DgDO5qKAxNSzshOsry2DI1gCVJAV0YAeG4IIPW+HU1Hz/xuG1haTLqqjzClYVtXNTyGRSsszMQyxM1juAwN7g6RbT8rhOBMrq62HnT19YkWoqvLmbW5AGoksSAovbod79O5GLOaquzClHus8UEfNsXja7M8TLdtrC2wAB7nffaJwNnM1JTGKWkqXS+rSI2DoxAB06hpaMgAkbEG/Ub4VS07r3uAQ/Bk9FX0rJWVU0EomBWWViVZImazWIDDcMCAOh8sC+AcuqaqMVNRW1nK1aVRJ3BkK21XOrwrvbbcm/S2Jozipra+nApKiKnhScqHja7M0LgsxtYH4VAHn13xG4JzaWlpuTLS1LoCWAWMh0YgarBgFeNrXtcMDfzw6ko7++QJktDU0dfTlK6rlp5o6iwllYlWjgdiG30t1Vg1h06bXwP4Ey2sq4feKjMK5IyxVBHUMGbT8RJYkAX2tbex+2Z+EamsrYrUlTFDBFUBA8TXZngkBZyAFBJCqqi/X1wO4Fz2opITT1FBWPGGLRtHE2pC3xAhgAVJF+twb4lKSQBaogqqOth011XNBNDUlRLK5KtHA7ENvpYglWDWHy2vgdwLltZVQioqcxrljYkIsdQwZtOzEliQFvcdNyDjvNmFVW1semiqYoIaepEYeJrlngkBLELbUxCqFH+eInA2fT0tOKaooKxkVi0bRRNqXVuykMACt9+txc4N69+YBKtiqqKqTTX1c0EtNVMglmclWigckNvZipKMGAHXoLb8uA6GqqaYz1WYZgFkOmHlVLhvCbOx1Ei1/CBbsfTHGszKqraoAUdRFDFSVSRCSNrlpIHuWOmwLEKAo8gO+OHA3EctLB7tU0NW6IxaNoojqXUbspDCxW+/34N69+YBGvirKKofTX1U0MlFVPHzJWLK8cTGxF7FlOlgwA6jpbEjhShnraaOqqK/MIy2pdMM5UOEOkOb6gDsQQBuRfzJH1OaVFdUuPdJ4oY6KqSIPG2os8TXLELbUxAAA8gN745cD8VSUtOKapoqtkQkxvFGdS6iWKkOLEXJIN+5wqde/MZNzGnq6KolArqqaGShqZIjJKxZWRCCD4ralNiGAHUdMSeGMnlrqeOqnra6Jn1DTDMVDaTpD7lgCbEEAC5F9r7javOJ6+ea1LNHFHQVKRKyNqJZCSWNra2IGw8gBjXgbjCSlpxTT0dS6qSY2jQ6gGOoqQw3FySDfvh1KhMl5lT1lHUVA99qZYnoJ5ImeRrqVGmxGqwdTY6hbqDtiVw9lE9bTxVU9dXRtIpukU5UNpYqHFywBIG6gDffa+BlZmtRXz1BFNNHEmXzpErI1ySAxJOnd2t0G2wHz34J4rlpqZaaooqtljvy3jia4BJbSQy2IuTY+uFvQG1ZHWUU1Uvv1VLE1BNJEzyvcFWCbgttIp+sLbEEWvbBHh7Kqmtgiqp66ujaRTdIZygOlioYXLAagLkBQL/PAmsrqmumqm91njjWgmjiV42ud1bc6d3Y32HkBjvwZxVNT0601RQ1hEdxG8cRvYktpYMttiTY+tsPet+QfkeVqVtHLVx+/VUsZoJJonaV7gq6g7aiBItmGodjfa9sFcjyqoq4IqmWvr4jKtykU7KNmIDC5YWYANpAFiT0GwDVVZVVk1U/uk8cYy+aKJWje+5DbnSNUjN2Hy7XxN4R4plgp1p6iirG5YtG0UJvpvcKwZQNrmx/Zhb1YHOpWtpJayNq6plX3Fp4XaV72EsY6ajpdbMpIPfyNhM4TyOsqIEnqMyrl5guiRzkEL2LFg179QABtbffYXPVVNZNWP7rMiigkhijZHvYOjWJK7yMbkj7O18G+FuIHgpUilpqlxGulWjTSwHUKySWva9gVJuO22B2luHoDJzW00ldC1bUygUfOgcyPq3lQDbUdLghkNuv22wS4V4YqpYRLWVtcrOp0xLO6GO/wlixJL99JFhfe/YHNUVNbPWytTTInuLQxR6HPhEkZAvbxObsx+fpfDDw/wAVSw08cdRS1crIulXSMliB0WRXAsw6awSDYX3w3qSFtYGrI62jGYRtWVMiimSWCVpXuQZkB6sdLjdDY/cDgxwVwvUz0qz1OYV15k1RpHUONAO6sSWOpiLG1rC9sLdXPV1klfM9NOimjEUSct9lWaIgX0jU+7sbDueww0cKcUzQUkcUtFVPylCI0aWayjYMkhUggbXXUDa/phy1KIKmxZzmCogTMaWeqmqFEMEsTSOxupmj30sx0sN1NvLDx7Cf5FN/zz/gTCDmtTUVH4QqZoJIVMEUcasjAKoqIrDUQNTdWPqTh/8AYYPxOb/nn/CuLlfcu+q+xC/5NuhZGMxmMxyG5mMxmMwAfL/tLkK5nVMCQRJcEGxBAB2Pn64ZpeGZQ0KnM6xdcyQkl9QJdGcaQkxZd10/SBet97btvEvsojq6iWc1LIZGuVEYNu3XViRL7O5SY2FaEaNke6UsalmjFkLsDdyoJA1Ejc47Hmjpik/DoYRg02VDDUzNRvUCvrOYgUsNbiMF30iPWZAWl03k2UjSDvhghyioFMsrZnVBXjhlL62IUSOEIAWUykjV3QKbdRcYdj7LvxZaU1KGNL6T7qmtSSCSH1X1GwBPWwtjtN7NmMSQis0hUWPUKePWyIQyqz/EVDAG1+wvfClli+OvQpRZV1K87GsjOZVglpxIUXnG0ojJBsDKDqsGcgA2VT1O2C34KqPdY6hszrEvHHK7GQsqiSRU06Vm5uoar3K6Ta1xh2/2YPpdfffjZ2LGmjLDm7SaG6oHGxAPytjaX2Zu0Kw++gKqCPUKaMOUVgyoZL6igIBtfewvfA8sfB/T9A0sr2HKcyda91rKwx0jvGCJJCZWR9JAAfay+Ine1x13tM/BVR7pFUHMq5NUcUjsZSyASuqWCrLzNQ1A3K6Ta1xfDn/sxkBmK5jODPq5vgFmLsGc6QQFJI6i223TGz+zV2iEJrbKqJHcU0YcpGwZFL/EVBANr72GG8y6/QNLEDlTcupAzKqaoilmRIVqDqZYerlTJqNwGNlBPgPXA/LI6+eiqqtayqtT6fDzpPF3ffVtoUhvW+LSHs0e0g993kZ2L+7R6wZf4zQ/xIGuQQD32tjlSezF4lRI8wlVEDgKIxY8y4fUL2ckG297AC3TD7+NfoLQ7K94yoKiijida+pkLsyODI3hYKrfVkOk+I+F7Nte1sQ8ppq6ajqatauoCwMotzZLN01m+qw0Kyt8ifLFoZx7MzUoFlrD8RkJSCNNbkWLvpsXcj6xPfHKm9lzoixpmEioquoURixEtw+oarMSDa56WFumGs8dPn6C0OyvOLqOso1jb3ytYM7xku7IGKBTrjtK2uFg2zGx26Yk0+W1wXL2kzCpjSubTq1yNyySOWB4ty6kEHYDe52w8Zt7KPeNAkrLBAbKlOiC7W1MQpF2bSLn0GJDeziUtrOYSE82OYAxLZWivy9Kk2UC9rDqNsLv40t9/Qeh2VlGKkwF/wAI1YlMMlSqcx9JjjkMZu/MuHOliBpI2Avvt5FDmBoRXmvqUiMwiJMsp0p0Mlw26h/DpAviyf8AZkwgNOK1tBBH8QmoKx1Mgf4hGzeIqDYn5nGn+zCTRyvwhJy+VydHKXTove2nVbVq8Wr4r98Pv4/Xp4fkGh+2V5mgq4lrD+E6lmppki08yUaw9wHvrso2Ph3O29sS4MuzC1A0uY1UaVp06uZKdBJGgfF4i6kEHYC5v0w61HsoMnO11znnsGl+hUaityvQ7WuelsSpPZ1MW1HMZD9IkoBiUhGjvoKLqsgF7WAAI2OF38a5+nl6BpZWeXZjM1LLMcwrS8YuymSQR+J9Cpr5l+cwu62Ugad+hwS9zrilBK+YVSxVb8vUzPdLkcrZXszOLkH0ubb2dv8AZh+Le6+9KYwSwvTpqDN1YNqvqttfsABjt/s6mJucxkI1RsqmJSqmK3L0qWstrWsLXF73wpZYPf8Ax+gKL8Sul5xpJJPwhO9Qhc8lZvhSNrM7KZQ/QFvCDtY+ZxI4Qy6orITIa2rU84xDQ9wvgVtTa51Yr4rWQE7dMPS+zJhE0Xvgs2oF/do9elyS6iT4grEm4v3I6bY9yn2ZGCMxpVgjmcxS9PGzI9gNSFr6WsBuPIYTyQp1z6D0Oys6rMJRRQ1MVbUsXbRIpf8Ai20ki+mYsA1m03AuEJ22BI8PU9VUU5m9+qg30trMWUcpA/iBmEhve3gRsPGY+y4zoqSVgsCGOinRC7AFQzlT42AJFz5nzx1oPZs0MPKjqwLFishp0MiawFfQ5N0uBa43wPJDTtzfQWl2VxxE2Y0aQ86qqQ0qayLuAhubIW5m7gAEgdL9+uCuT09ZNSLU/hGoQMkjkk3RRExUgk1Afe17hSB3OGas9krSoiSZhKyx30gx3tclj9fc79T22xOpPZ3JFCsMdYoCBgr+7RmRQ5LMockkKxJuPXBLJDTtz6Aoysr7iDN6mDTpzCaSN9QWRSCGKNY2MdQ1tirWNjZhgjkXvlRTc4V1TdjJbcaQIlDHUGnDktew0BrbXwy5p7K/eNPMq7BSSFjp0RbtbU1lIBZrC59BjtRezVoohElYNKlyrGmjLpzAFfQ5uy3A7YTlj07c+g6lfkJ/E1fV0bKrV8zXLISBddSEatJWoNviHhazDa4FxiVljVUtF7x77VE2la+xVRELnUpn5hLWIBUMASL4ZM39mJqdPOrCbFm8MEaama2tm021O2lbsd9sdqX2cmOEQiq8IDqrciMuokFnCubsuoXBt2OE5Y9K6+gkpX5CJnPELokLJW1X0ys+mWMFgobSp8M1gGIa3y9cF8toKqanjlWtqAZF1BigKC8vK06BPzNX1tlt63wVrfZGsramq3vpVB9GtgqqFUAA7AADpgrR8BPEiJHVqrRgKsnu0ZkCh+Zp1m506t7YJSx0tP2GlK9xD4qqZqWRUFbK6umoNa/RmQ2ZJiva9gbi4vY4KUOV1UsEcgr515iI2o/CNcgjsLT8wNvcXXT2vg5mvsv94K6qrSFBCpHAiKtzdrKpAuTuTiWvAMgjSMVaAIqoG91jLlFbWEZySWTUAdPTbfA5Q0qnv6foCUrZWXEklXSyohq6064xKBLI6OoJZbMgkNiCpOx6EYJpSTvHEYsyqJJHUagk5ZUkaNnSNrS6lLMugMVte/phrzX2We8PzJKw3ChVCQqqqouQFAawFyT8ycSJfZy5CD3wLoZH1JTorM0e0ZdgbuUHS/z3O+L72NKnv6E6HbKvzPNKuIoprKosY0dhzpAULjUFPi6hSpPTckdsdssrKuVC75jUQoHWIMZZW1OwJtZWuAFUksegtsb4fKz2Sc2R5XrWLyMXYmIbkm52DdPTtidkfs6alvpqlfxCRdcR8DrcK6lZVINiQRezA2IOKeaGnbn0JUJXvwU/JxHWgke+1JseoqJLfYdXTBzMcymWmp6iLMa9lkZklBlN4yttrCUkFhdlDWuADthvn9jwdmdq1izMWY8obkm5PxeZODj8ByEg+9ILNr2pIhd7qdZ7GTw21eRYfWOKlnx7V7+go4572VZxbLIvKVayqngmiWQc6QsL3N1IDsupCACOoP2Ys/2GD8Sm/wCef8CY4Zl7K1nKlqoqqCyIkKIigkk2VbAXJuT1J+yzZwRw0KCF4hIZNT67ldPYC3U+WMsmWEsWlclQhJTvwGLGYzGY5DoMxmMxmAD/2Q==;" parent="1" vertex="1">
          <mxGeometry x="449" y="-730.01" width="152.34" height="60" as="geometry" />
        </mxCell>
        <mxCell id="6CbB4MI8648zA9k0CxYu-14" value="" style="shape=image;verticalLabelPosition=bottom;labelBackgroundColor=default;verticalAlign=top;aspect=fixed;imageAspect=0;image=data:image/jpeg,/9j/4AAQSkZJRgABAQAAAQABAAD/2wCEAAkGBxMTEhUTExMVFhUXGCEYGBgYGSIfIBogHyEgHh4iHx4gHykiHRolIiAgIjEhJikrLy4uHSAzODMtNygtLisBCgoKDg0OGxAQGy8lICUtNS0tLy8rLy0vLS0tLS8tLy0tLS8yLS0tLS0tLS0tLS0tLS0tLS0tLS0tLS0tLS0tLf/AABEIAI0BZgMBIgACEQEDEQH/xAAcAAACAgMBAQAAAAAAAAAAAAAFBgQHAAIDAQj/xABPEAACAQIEBAMEBAgLBgUFAQABAgMEEQAFEiEGEzFBIlFhBxQycSNCgZEVJFJUobHR0hYzNFNykpOissHwF0NEc4PTYnSClMJjhKPD8Sb/xAAbAQADAQEBAQEAAAAAAAAAAAAAAQIDBAUGB//EADQRAAICAQMBBgQEBQUAAAAAAAABAhEDEiExUQQTQWFx8AUiobEUkeHxIzJCgcEGFTNS0f/aAAwDAQACEQMRAD8Ahe0biushr544qmVEUiyq1gNhhWXjnMe1ZP8A1sSvanvmdR/SH6hjOCtSCRea9M5eNuYAylo11cxA4RtJuUbSRZ9NsepFRWNOlwcm7k9yIOO8x/PZ/wCtj08d5l+ez+vi7fdgPmUDGaUqrspkYqxTSWBYkHSAAtxvYAAdNsNfBEmiOxnemIm1ylVOqWPQAoHgYSaWD3hYWbXfthy0KN6UNXdWDDxzmP55P/Xxn8OMxH/GT/1sAXpJL/xbjyGgj9FsORjZstWmkqVYcxZYhqlJjsja0kQqQijcKFG7sOoJIJ6I1shJSfiDRx7mQ/42b7x+zHjcf5j+ezfeP2YlcYyO9PSxPKKiWEyAPG0jgxsVKl9Y2kuCNPYAXA2xy4JrxS+8tKk/iRABGzxuRzU1aGUXuFubX3tY4m4adWlFVK6s4njzMevvs/8AWxi+0DMfz6b7x+zEDiWN5KuocLqDSswaNG0kEkgi++43374sc5mscVMQ6nx0mkFjNpCKqzfRMhWn0jVdgbn0J2mcoJL5eQin1Ev/AGgZl+ezf3f2Y8PtCzH8+l2/o/sxCrGZqJYtJ1JPIVUJZtLIm5NrtvcAm/S3TFh5zncQdfpI21TMb8wz2iaJ121J+L76RoXffrtu3KC/pGk+oj/w+zG/8unv/SH7Me/w+zH89n+8YmV1QPwfoEq6ORCi09jrSZZAZXtpst1D+LuHUdsE+Ec0jTL2jZgCPeNSmYrfVGoQmAKRPdthe1rHA5QSvT4ip3VgJfaDmP57N94/Zjb/AGg5j3rZ/wC7+zEDiiRp5xKq3vDDq0JZQwhjDgAABbMGFhttixaDNoRSQxySopEMKxEymQJKItOow6LQaH3L3N7Hzw5OEUnpBJ77iOePcwP/ABs/2MP2Y2XjuvF/x2o+8Yj8ZanmRi3OkWFFmlQEh5Be51W8Z0lFLdyMHKqSAU1NFTTGKqpWW8wFlcz/AMaUcHUwRiOoFlVrXxT0UnpW5NSvkGfw9r+orp/vGMbj6vt/Laj13X9mIHFte9TUvJ9IyraONmBJKINIJNrlm3c+rHDnkElCEo4mF5aVxMzsl0kaZfEqstyeW5iv4dhExF7YJaIxT0jSbdWLf8PK4j+W1P8AWGPRx3XfntT6bjHHju71WpSXPLQOQS66wLMFkKgyAbeI3PUXNsT+H46YUM8EusVFUGKto8MXKGqPW3Ua3uPCDsRe2D+HpUtIvmurOCcf1v59U/Zpxg47re9bU/YVxN9oNUJY4SWjMiuwVYJJHj5WlbEh/wCKe4A0i217jYYj5K1H+D5KeVyKie8oYKCI+VflozagQz2cWtvzVvbbCWjTq0jeq6s0HHdZ3rar+7jYcc1fatq/7mN+NXopIaP3NZVKRlGRkANgzeJyGP0jG7eoYHbpjfhs0Yo6iGdrTVPhRreGHl+JGkNwUDSbbA3C74Khp1afoK5XVmg47q7ECtqb991xsvHFV+e1d/8A0ftx7xNVlqKnheeOZ4nOgxSFwYyvVxYcsrZVVTY217bXOnB8lGsU61L6WqB7unhB5QIDcxrkaF16CGsfgbbyKhpvSHzXVmx43qTt79V/3f249HGdR+e1n3r+9jziCY+4U6NPTynUraI5YzyAEKhAinWSblpG6atPqcacNGkWnmSdwJKm8SNpBEIUaldzqBRTIU3sdo27YVQ03Xv8hfNdWd14zqT1rqz+7+9jBxpU/n1X9y/twEz2rVzARouKeMMEAADDVcEDYNa18NGVT0Aipo2kQTQsszuyAqTJsVvcluWWiJBWw5UnrYkopXpGrbqyGvGFSf8Ajqu3pp/ex0Xi+pt/L6v7lP8A8scqqrQVlIaiWGRlUCokQhoywd9JJAAfShTUbb6bdsbS5lZZ0qJqWWRqRgHj0MdQkUqokAAZiCxsN7AA2tbC+Xp7/IN+p6eMqj8/qvWwX97pjwcZ1P5/VdewT9uJGf5lA60hleErFMi6YZjIrQBV1kp1jbwqNPhJu22wOIlfmjBzz6ijmLQVUatHoOhTEeWAy7LqawRfiUFhtqwJRf8AT7/IbT6nReNKjvXVl/QL+9joONqi4/Hqz7UQ/wDyxHmly5qKkQSFZVnHvAIF2DheYQQ1xGoFlNu3mScTJlCz6KmnolUx1Ii0abhVjLRt4DpIuoCM92Opu4BA9HT7CqXU1PHM+34/Wf2cX72+MPHE/fMKv+zjH/zxCrIwMrUSrAjB0eGVeUWlVgQUuo5gZLlmLE9LbbYP8O5vSjVIskQnqYdUn0kcXLeMohVXkBVDIdcnQ7AemE1BK1H7f+BUm+SAvGs/5/Vn5xx/v4tD2V5tLU00ryyNIRMVDMADaykbDYdcUlxbVRPWzNE0bIzAjQRpJ0rqtbY+K/iGxNyOuLb9hx/E5v8Ann/CuJzwisVpDxt95RY2MxmMxwHUZjMZjMAHztxUt+IE/wDNQ/40xO4Qocxr6iV2rqtIFkawE7jX4jsvi2UDa4G2wHpG4mjI4iS4P8rg6/0ktjvwPxHNQtKHpqhoyx1Joe6nUfFHcaTe/iXY7XF97dmS9Ea6GEOX6hniHKq2kqqOSOuq3gkqoopI3mZiupxbe/ijYBhuLgjvfYVwfS5lXVEzNXVaU6SNa0rjX4jspvsoG1xfqB8uuecUzV1fQxR008cEdXFIS8ZBYhwLm1wqKCTue/a2IvAvEstC0qvTztGzEsultSnUfHHcaSCDZkuDdQRfe2VSUfM02sN59l9dR1dE6V1XJTyVcUUkckpYrrYG1x8UbAMNwCLW3vgNwXHmWYSyucwqkgSQr4ZTqY9bC9woAI3seoFsd814slr6+gijppkhiq45CzobsQwFza4VVBY7nv2tiD7P+I5KDmq9NMyO2p10lXDDbUuoWYFbArcG63HXYqWjgNrD+d0VdRVdCy5hUy08tVHC6SyXILEGxIsGRlDdha3e+AnBkeZZg8rnMKpIEkKeGYgsetgTcKACN7HqNsMVDxR+Ea+BPdpY4Yg86tKtiXAKC43A0hiRve5v5YMZjxfSUsrQSa42AB2j2YMNitt28umPH7V8Tlgy9wsbk6vbodEMOparFjNsvrqOsoWFfVyQS1cUTpLKSQSwNiVsroyhuwtYgjAvgqizKvaSR6+sjhRyvhmYMx67aiQqgEb2PW2LMzWNXelLblZtS+hEUv8AkT1xFzbimGmfRNzV8mCEqdlJAYdSAwuPXHF/v7lUcWJy2t9ef7l/herFOuoq6jrqEiuq5IJapInSWUkg3BsSCFdGW+9haxBGBfAEOY5hrlfMaqOFTp8MranNr7XJCqARvY4sXiFA3uoNr+9xEEi9iCSbbeE2BF/X1xU3B2dPTUskGmpi5gBZ41HMjYbEqJAA6MtrgEMpBt1x6/YO2fisHeJVvRhkx6JUNlZSV9JX0Vq+qlp5ahY2WVySDsxBt4XRlvuAOhBGA/AAzOvVpXzGqSFTp8MniZrXNib2AuOxvfGZFWNNU0MCCrMcU5m5tQCzyuRZi1ieWAPhBPc37YF8K5rJT0xh/G4Rq1lo0GpHtpbwSALJGwAOm4ZWXbY79vzaeNyNrG2eKvpMwoh7/UzU00pRlkbdSouVa2zKw8QIA73G24r2fnNK9DNJmFSkIOkaXGp2ABNiQQALjex6+mOlDnktZV0MZFRohdn5ssaqZmKsDqEY0x6Rso7gm5vbEH2e8TNQxciWlq2RvENETExvazbEAMrAA7EEEHrg+bT5/uG1jDUfhCkzGjBr55qaaQqRIRqUquoq1tmBFiCLd9ttxnABzSujM8uY1KRA6QFI1OQASbkEBRfyN98brxR+EMxpESKaKOJ3YcxLGQmNgSbXC2sABc3ud+gxB9n3FS0UHJlhmKFgfCt2jcizeE21IbX2N1O1sOpaePe4trD9QcwpMxpVNfPPTTM4s9gVKIWKtbYixDBha++wtuI4CizKuiM82Y1SQ3KrokszkdSGNwoF7dDc36Wx6eJnzDMqQRxSJBFzWBdbFi0TAsbbKBpAAuep33sB/s540Wjp/d6iGYrqLq622BAuNLWuNr3Bw6lp43/cNrD8qV9HmNKpr6menm5luY5uCkbEq4vpPVWBHXyFsQeAYcyro+fNmNXHFcqoR/E5HU3OwUHbobm/S2Ob8TtX5lTcuNkgiWcgtbUzNC1y2kkL8IAFz+nET2dcZLSU/u88FQQGLI8aatIYAlSDYnxXN7/WwVLTxv8AuG1h+YZhSV8CnMJ56eVJmXmNZgY4mJVhexIJVgR87C2IfAUOZVsXvE2Y1UcRJVAjDU5XYm7bBQduhJIPS28eoz+SvzGHl086QwxVGjmIQzF4JLs1th0VQLn572xp7O+LRTU3u88NR4GZ1ZFB0hrErpYqWOrUdieuBqWjz/cNrClZU5hR10cb1800EsNQ6FrAgxQuxDDpqU6GDDY7Y58Cx5lWRe8TZjUxxElUVCuptJsTqYEBQbjoSSD0tuPrs/kzCtBSGRIoaWqEYdfExeB9RIFwL2UBQT0677b+z3isU1MYJ4J/AzMrqBYKxvazFSx1ajcX64GpaN1v+4bWT62rzGjrBG9dLNDJT1EsZawIMcUhsw3GpG0m42Ox26Y84KTMayL3ibMKlI2JCLHp1NpNixLCwFwRaxJsencTW8RNX1jGOJ1iho6oICPEzPA+ota4F7KAoJ6euJXs+4wSClFPNFL9GWYOoX4WN7aWZWYgk7i9rgYUlJQ3QbWTKytzGjqnjetkliakqJonIUG8cb7MLGzowU3Gx2PmB04NizKsiFRNmFQkb3Eax6dTAEqWJYWAuCALEm19sBa/P2r6qYpE6xRUNSkYI8RLRtqJtcAk2AUE9B3JxP4N40gpKdIZ9QXcqyrdlv4irobEgG9nFxYgG1sDUtO639BbWda6uzKkqJo5K2SaI0c80LkBTdEYDUttpEcDuR0Pew24Mosxq4RUTZhVIj30KjDUQCRqJfYC4NgBva9xgNX8Te/1FQ6IUijy6oEYa2ogrdma2wJJGwJsAN+uCfs+43iipFglSQ8q/wBImgjSSWAsWVja53F/XtglqUd19B7WbVVbmFJPUxSVssy+4yzQudr28IJX6sisCLX8j3tiXwbQ5jVwiomzCojR78tU0liAbaiWFrEg2AG/W4vgFmGevXT1UixukUeXypGGG5uyszG2wJJ6AmwHzwwcF8XQxUyxOrssY8LJp1AfkvGWVtQ6BluCAOnTBLUo7r6Aqsg1eY5hSzVUMtW8qrRPPDJYC/iVASpB0urBgRc9fUYl8IUWZVUK1EtfOivvGqKhNugZiw72uAO29xfAXMc5eunrJlidY0oXijUqb25sbEtbbUxLGwvYDva+GDhDi5IaVIZFciNbIyhS2nqFZGZWBXcAi4IA3GCWpR4+glVguqzbMaWWrhmrGl00Znik0gXvJGobSQdLjxKRc/bgnwlQ5lUwLUTZhOiyLqjSNIydO9mYsADfqFHYjffCxmucmsmrpxGyRpQ8tFPW3PiY6iNtRLMbDtbyvhr4L4wijpUicFhEtlZCl9I6B0Z1ZXA2uLqbA3HTBPUo8fQFVgipznMaV6yKarMmilWaKTQouGmiQNbT4W3dSDfe/XY4NcJZbmdVTrUTZjNGJBqRI44yQOxa43v10gdO+9sJ2a54a1swn0FUWljjjXqdAqY2uxG2oksTbYdN7Xw58GccwR0iRPqbkoFDppN1HQMrOGWQDY9VNrg74J6lHj6DVWLWfVFaiV9LV1HOVIYZI20gBg08WlgALg2uCp6EHr1w7ewz+Rzf88/4ExXmc58a38IzadKiKCJF6kKtQhGojYsSSTbYdN7XxYXsLP4lN/zz/hXGsr7nfr/gyVd4qLIxmMxmOM6DMZjMZgAU+PuC0zCMMp5dTHvFKNiCNwCRvpv3G4O47g/PmZZhmUEzwy1NWsiNpZTO+x7fW3B6g9wQcfViyqSQCLjrviquKKMScQBdCNqorkMBa4Z7E3BA6Dc9sb4sulNPciUbexUBz6vH/F1f9u/72NDxLXfntX/byfvY+h6KnyxgS0MQax1IyL4bXvqFtht1Plj564yp+XWTppC2lewAsANRsAPK1rY1xZlN1REoteJ4OKa789qv7eT97GrcU1357Vf28n72BN8bQUzyOscalnY6VUdycbyUa4IV2WH7Ks9q5aqUy1E0qJATpkkZhcugBsT1tffEj2kcRxrUH6asjqBDEwSOQCEkoreJdmub2Jv0tjb2QZJLHLVCQBTy47EFWBDFzcMpIYeHsexxI4uySOprJY4oZpZl5cbkRJy0PLQC7l9WmwvcgWx8vKcPx+aT8FFfRs9KEbxxQ01HELych1TS19RGq43Ugi1txvgbxFmWqGB5BOJXklKrARpCgxoDICVOkBVuwNhdvMYnUuWuavSUVAkFwSL9WtsR223HoMR+OsqirTToiSuUDoCkalV+k5XjJYaRqQ72Ow+QPl/C+7UpSriP0bbOjMuEiZnucTNHHylJaRZHCKxUyFEuq3BDWJN7DrpA9DVvFnEVWlSyrV1KeCMsnOf6NzGpdfj3sxI3Nx07YumvyuGRY1mjjfQSU1IDY7bi/Q2GIv4FoE291phYajaBTYDubKbD1ONPh/xfB2bDHHGDk99l639jHLglOTd0ik8vz+tYn8bqX2+DnSAsO+g6/jHUDvv16GQ+fVrBQtdU6iPo2EzgSgfVI1eGUeXf7ibQ414bpVoamVKWBZEiLBkiAYEW3BW1rC/b9WKiSJnjDtGx5hItawmK/E0Z6c9bi9viv53DfUdh7Zj7Zj73Gq8Gn4M4skHjelm0PFteL3rKo9iDNJ+9cHHan4trjq/HazYXuJ2NvXSW8Q8x64F11iAxJYn4ZANpB/4h1WReh8/uJhOL9Db5Kf8AXbHoPS1wYbp8jHU8VZi6mRK2rVgLyR859h+WgJ+DzH1fl00/hvXuq/jtSrA6Sec1iPM77N8uvz6waQlUUs5sh2ex1QE9CQd2ibuPXzPi3kpkuxMdtryKn1O4li7NH3K9gfLdc1GPQts6xca5ketdU9R/vW8/ngll3E+bS2SOqqGaR9CXlI8Q30glgASPPr2xEpcr5z6igbw6pTHvrjBAaaNQQRIoNylt7Hb4hhqEIReRp941oupEJ/HYhfTPTnfTUx2BYeh62OMsmSMVSW5Si27OVDxNWmBVaumVgWapAdmqAVYqkUUXZSLEydLkgnwaWFZ7xFmcEioa+oZXUOhDSKSCWUDSyqwN1I3UX2I2IxJzTiXk6SkgnqdIBqFPgliZbFZEFmEoIUNfclQ2xtYdwpWIHdnl5dS3w1UrXWBAp1FQQWaZvhU9RcWt3iORdBuJ2rOIczhkaGeqqFkSxdRM7FbgEX0yWB36djtjROJ665Jq6v8Ary/9wYKVGXrInJ5RjsDJHC7afd1bTqqa2S28jixEfYFRaxAKYylHCuulDuG5Z8SX2dVYglT1HS+NscoyXCsiSaGGTiTMGH8srF+RkP8A+zDDFX1ASB/fc0lM5KpCjlWDILMGckjSzldJC7ISTuN66EviIHKABIDMpFxfy3+7E+jzeeJlMVRChS4UrqGkN8VvDtq7+eKlFeH2EmMVdmWatUtBS1NdKpayHmMb2HiAewVgDca9gQL98FDHmKXE2byq46rGXlt6FtSrf5Ej1wW4ahaOm94k0mSZQ80qrYlT/FIDYEXUBr+bDywy0/CkE5EtTHuuwjSyLt22F7A3F76ibkm1hjklnUdkl+RqoXuV7UDOlF462aUWuAkjB2HorAXPoCfS+FuPi7NWJVayqLAFiNZJAX4tuu3fyscfQseQ04TRECnkCSw9Lgnfy37dLbWqz2pZKIGjrISVdJNLsPiJ2tc92Xpc7lXW/e948ym6pfkJwaFRuJs2CK7VVUEa1nLEA3vax6G+k/diZknE2YzzxQe/VC8xwtw17X9Li59LjGme1Us9I8ryRKj1IeCN5AJBGOcB4L7KNQUWAA0nADLWeOYOkkSujeFmbYnp1ta3zxunCnsrMmpX5FjCDNGcImY1IawJSQaHTUJdOtA7AamjCixN+YvyPaegzUR6kzGpduWWsAApdW0tDq5uoTXBsNHisbd7IGVJPEHEE9OgbSG+lUX0Orjra/iUfZfzxtm+YVEckiVCRO0qAkjSw0uTMNFiY7l3JuQfS29538Gn/ZFV1sMw12duA3NrVQtp1uzogN7WLNYA38Pz2xDreI81gcxTVNXE43Ku7A/PfqPUbYd8po48xqpY510tGSsTBDZo12YPvbVcKfEAbA+Z1eZjGPeaIcrSEzGNIywNyhRWYi+4QuCQOm3QdBMM6b3ivyCWNpclfnjivH/HT/2p/bjz+HOYHpXT/wBphv4fz3MJl51RmDxREsEVYY2kk0/EVGiwUGw3uTYi3fEfiSsrPc6yOapFXGUheBxGqn+Ns90Aurrp3W5sO++KebHdaV7/ALAscquxZHHGY/ntQf8A1nG38N8x/PZ/62FhhJ2ZPu6foxrHzCwGpdyB95+XTB32P/qHdy6jLmHFNXOnLlqZZIzYlWNxcG4+4i+Lh9hhvRzHp+MHYdvCuKRqsuljIDxHpcMlmVhe2xW46gjzvi7fYXtRzX2+nPX+gmKzNPFsRBNT3LJxmPL4y+OE6T3GY8vjMAAyemSXxPGpsSBcetr/AKMLOe5lltK4WdEW/wATcu4Ty1Hrv6A4bIOjfM/rOA2a8M09QxaQFrizA7g/f2xm3uNELLJssqW0QiF206rBCNtt9wPMffgmOG6X+Yi/q44ZXw3BBKZYwwbTo3OwBIOwHyGDQxOp9R0VN7YaSiipHVBCs14yqi2rZrGw69GN8U/kWZCCoSRgSo1KQOtmUobX2uA18WP7V+EZUkMiKsnOleQBR4lG7Ne+1t+oPYbYquGld3EaKWdjpAHc/wCu+OzC1oqzOS3Ly9j8kRppFiZmEbCPUyhWb4nvpBNlu5A3PQ+eD+VcLinmaWOontI+uSNihVjYgXOjVtfse2Kj9mtHLDXtFICt4i2kMCD4lCkFSVPU7j1xbFS+i30hUnp4sfEfF45MHa5OMv51b28OD0+z/NAI81RVuCQDyUAuevikJt+j78Rcu4aSGYzRSzDUxZ0LKyNdmbuuoDU7HYjc4iT0DMys51Hz9O2NlpQDp3v1IAJNha526DcXPqMeVGc0/wCG3uqaXkjfQqDVd1XEA0GtmuzAMNLAdx5YnmKyqBj0zKpsTv1sAT+rt64yxOcZ3DnyE600QeNZVShnkfXo5bK4RtLEPZfCSCARfuDig6nMdVJBDrYvFNKwBJ8CssOmx6DxK5sO+/fF88fIDllUD2hY/dYj9WPneeikRI5HRlSTVy2IsH021W8wLjf1x+if6exwXZk172PH7W3qMqKjWbsBq7kbaj5mxtf1tvjktr9L/af24wLjzH0KijjsMqwOllawHhVn30X/AN1Lt4oz0ViPn3AkZfRNIyop5QDhA7k/i0jfCGbvC52F/P7WG5NHI8qpGhkZtigF9a9WFu+w6dfLe2HeBVQRpTAS8xSkOoECuiv46eX+bnivs+3QdAVxw55aHSN4fMrZqumFdK3hMb9Bo5lHUFQSSfrUUoG5+EAb9AMDs9zP3ctEgVZ9RZwosKWS6sHpJFbwxSqd1+XyHmZ5yKeywyM04XliU31RR+JXpZkcEPoI2f5dsKSoALY47NjcXYkk3JJJPmT1+049YFd8aK2Oha+5OEMZskzPn2ikAkkL6lVrn3qUsNJqpGbeGIbhfn5kGZmNOk6+IvJqbQJAAZquZV0hIb7R0SE7sPD0t2CpLC2GbK845g0yOyvo5fNG7tCi2WmhUKdJkY7v13N7i4Np+ImhbrKZ4JGViNSHSWQ3W46hWGxIOxIxOhnZtgSCehNQq2+87fbhmzOiEqukwWLkizkBuVlyAs5jQf7+pktud9+9rlVCdDA/KnpxcgEq91cBhdTcHwtYg7g/LHVHJqXmZONMvfIJmakgRlI8UCMD9UCOMsGPf6w+3DbCToXzIB+ZIucVxwSze5UgvsfF89MQH68WY1vLptjy8nJ0oiNcG4vfCD7Va0Kzo6q0R5UjodtRMoU3I3+Ff0YsRx6d/wDXbFW+0uo01bFiAqimAJGykyTnUbgg6bK1j+Th4luKQj+0PKY6aSKNCbpHGCGvc6gxJsT0BFvCoW5PTpgKlRIwFiAPRR6DyxJ43rpZZ4nldncxglmcNquzW8QAUi1gNIANr23xBHw7fbjdkkla9yro+lhYgHQt/vAH34Ya7LKZculmY86blRhX1G0RJA0je1wvboL22IOFRh3t92GavzdoqJqYiUrLDHYWUINSK+rVp1F7r8F9JBJO/WoJt0iZFqeyJ+YlbKygP70dlvtdEJW5UE2JN9uvTtiPx1ZM0y2NI7aplkZ97EhmAB7X3J63xpwFmEqVOYwRopAqmfW2r6wFhYAeXUt326Y0zyueeuouYoXRWrHpDEi4jDki4BF9Vrb9OuCH83voJrYTYMzSWkhSecK0F0EhXmWU2HKkVSHVlYWVgCCDbr0H51xCZ4ZgY10UwRVKXTVqJS5B1EHr5fLDTw/LmVUsk8uZtTwCQop5aMzEHT30hVvsCSSbNtYXwvcayVfJqI56wVkWmN4pFAH+8swZbXVhbcG+1jffA1FMpNiEz9d8ZTSgOrE9GB29DfHM0Z/KX7sbQUZ1KAVuSBb5nCVDHRuOCHukUhGx3l07/wBEBgB9uLL9n8b5lTySGSSHTJosG1XsA17+G3xW+zFNRZLMSw0Hwx803B+Hbp5nxDbr92Ly9idM0NLPHKNDCa9jbvGhH6/sNwdwcb5cONRtGMZycqYabgxu1VIOx6/v7fZjb+CEn53IPKwIt/ew08weY+/Gax5jHNpRtYNyfKWhHimaQ20gt5XJ33Nz2vjzBQHGYYiFD0b5/wCZxzbHWIbH5n9ZxyZe+MZclI8VcdFxpfG18SMrn2zwB46e8c0n8YdMRsRZepP5A74pTJqpaedZJFbQQ6EjcgOrRkrc2LDVexP674uv2yKDHAClQ+0htT/ENhu2x+jHfFEVQGrYMu56m99zv6G3rjs7PHUmjObosH2f1VIZFSPnF6eI/SMgCuhlV2uoLMGUmw3Nxf0xbBpWbUNRAZdLAW3G/pfuemPmaCd4nLwySRnoGVirWPUEqcSv4Q1vasqv7Z/3sed2/wCD5c+RZcc9LVrrya4u0xitLR9BcQ5jHTBDIxFzbYXNu5t+SL7n16Y7QUrl9QYi4tcW3Bsdrg+Q3GKsp8r94hBarqGlWGOZwKh2c601ldDJpXVfSpVmNytxucCQJVgjqBLXFZNCiFJ2uuppVBvbcNy/CNPU9fPyo/AJQ0yx5KkuXX2Oj8VaprYurPc2ipuWJLi5sLC9gLAk/wDhFx6+nXG4pDIW3bS40mx6j5/5jFNchS0ccktUWNY9GXE530FLMAdhcvYi+w3GFGHNqqwtUzj5St+3GmP/AE7JU8eSpLl0Q+1pKmj6R4vh5lFUx6lQvC/ic6VG3Vieg9cfP+Y1qtTU8Gos8Mkxbraz8oLpPceBv0eeI0ma1LKUeonZW2ZTKxB+YJscRLY+i+FfDH2PG4OV73wcOfOsjtI8GPce6celceuc1najrDGb7kHqAbHboQfqsOoP6wSCfreI1aNygBmqCeeWRdDWI5csdjeKcW8Vti1zvtZXZfv7f688MqcKEU7+L8Zhu9SrEKlNHvpVjvrmc2sq9NwbHHB2tK78TowgIuSSSSSTck7kk9ST3ONTj0gjYgg9wRYj5g49jO+OI3NAMdCBfbfzxuEGxPTHrKF73B74ANGOOSvY7Ei3THaVbduvTHEjAAdpOIgkaax9NGbU9wNAZyTJLLqvrlF/CSCB1I23gcU5O1NUspmSdSTaVXDXNgfFvcPYjr17YK5Xw3rRRIzrNUIDTLGFZZYz8diekiEbpdSdwNzupyoQ+k28JtsPLbG+LkiReXBIApcvG/iilPTbbSOv24seQdf9fqxXvCEVoMssB4IiD/1NDYsB13P+v9HHDPk2Rr/r/V8VB7Yuspv1mhT+qkrfZ8X+u1vr62xUvtQcfTlgpUTAm5s38TELx+bgvfysGvtfF9n/AJicnBWnEo8VL/5aL/PHO+w3OOnFDAywab6RTxBb2BIttcAkD78cFU2ucbS5JR0mOx+R/Vg3nFI0ogRAzN7nC2kdCNJB2vcnddl3tfABz4T8jg5m8SNJSrJJy09zhu5UsFPKuLhQTYmwNgSL33tjXDyTMPScaROwcrWoxPiSOr0LcKo1W5V97dD0tgrkeYtLV0UfutVHpquY8k8jSMTo0AFiigAbfowsR8EVBOlZKW4O6moQMCRexUnUNiOoG58tzP4WyGenr6KR3geM1IivFKsnisTY6em368aNY0tmR81hHLKu9E9FNDUqgkMiOsRPdjpYWvbUzWI8/vB8R5tNLTSq9PojiVVjfQ8eq5030uTvv28x06YkZbxhmcod/fnCxsLg6FuCSPyRt06b44Z3m9VV0tUJTOwURlFks1vHdijKi600gG9th9+OZrc1TEdn3O4x0ppQHUmxsQfnjm1F/wCNcbU9ES6gFSSQAPP9GBUMaY+IIVFxHKX8tQC3+YN7fZfpixfZxw/DmMEkrmSLTJo0hgR8IJ6r5sbfIeuKvquG6uJVZ4HAbpYBj57hSSp9GAOLr9h0RSjmDgqTOTZgR9ROxtjoy48ahaMYzlqphSP2cU63tJJv5hD9ouuxxkns3pz/ALyQH00/sw56x5jGax5jHLSNbBeQ5ElKulGZvVvnfoLD9GPcFAcZhgQ4+h+f+eE7i3i56S8ohDwR/wAY1zcEtpFiAbC5HbvhomnsSEV2Fzfwk2N/Qf6thezLMKM1CRzrGagC6I6HXY7XAK73Pf54zcXY0zThni8VczRchoyqa76w17EDsB59cM4OBcdZEhJCaT9a0ZHTzOntiNFxbSPcJOjEGx0kmx8jYbHC0t8IdlSe1LPqh3KOzJy5XVAFKXS7Dr1ZSAN72OK3d7nvv2v/AJnFwe2rMo3pIwLFjOpU2PwhJNViR2LLt6jFNSG23347sG0ODKe7O1vn94xYHs24fp6qGQyQ82USELdiNgq7bMBuWO+52xKyLgikkmgvGSplMbRtIfHaOVtiNLXugPh7YfOEckgpKyRIY+WNvBqY2JW/RmJ6D9Axjm7T/SrKhj8RfzOj5ZSneFrRaSkfPlIQj4bAPYW7WtbscdYKePUZSXErLZnE8gYjyvrvYdhh1zRQauPYbug/QxP+WGPkL+Sv3DHNbfiWU2nD9PdRHEos2tbyMLNt4h9Js2w367DHuV8I08rFPc02/JL39Tu/Tp5dcXD7sn5C/wBUYX8hiAqpyLCxYADy1dh26YpSkvETplTZlk9LS5kqtEoiFJJK8bDWA6pNuEdvFvGpClup64nZxQR+68ykpI5bt4nSmRg6GKIl7liaTdnsFv4lbpa+Hfibg6jrKl5Z49brHpFnZejbfCR3JGEbibgXLIKWaSOSTmqrEDmqVuL7Wtc2YaCCb+p79Uc1tLczcAh+Co9E0ookVwp5MHucbyrZ472TUUni3sJ+oGrrhLzqqvQoHp6aOY1EschSFI5FEYiYC4W6+JmBta427YV1jHkPux6bDsPux3LA1u2YPJZ3y6uenkEsZAYbBmCtov8AWUHbWOx7YccukRzHJTBQUJeJJGDiMAgyVFa9tybXVeosCPVEd722G24FvPudv0Yk5ZmBibccyNiGeJmISbTcrrAIugJvbGWXFq38S4Toas1ylasCWnDmZt9DbzVLE6pKh72WOm7K1gOxtfZQje/TDuk/MXnq7OZDy2IGl6pyP5NGgPgo1FlY/d2xH4hytZ1knj0LJCdE6rYRo1wkVPAi3MjC3x9D+rhao3TFS+NlIHbbGmkqSGUhgSCpFiCNiCD0I8sejewA+Q9cSMyVhcjt2wzZPk4gUzThxIovpS4lp9leKoA3ElP2Y2IHrjbh3KBHy55QheRtMCvpMbOpKyQTq1jGzA3DHYep2wSRuWplLSJyPCpteejYDeB42b6WisTbfYHe296SFZ7Oi3fnKhaU62iRgFnJJaOahkA8D36p3vuLmwr/ADbMZJ5mllN3OxOkDptvYC7eZtc4ZK2oMpZSg0kF+RGTy2Xc82m1E6HXe6fO4+JQPzSASgMSDKRdJRstSo63/JnXYEH4tr72L9EIad2Q3ZdHD8+laODT8MMBv6WRbevQ/dh5nG+KsyjOZHmpTYcsQIFsOuhQevUm36sWqCrAMNwdwcedJG6I6jcetsUf7W9+V1+knlAt/wCFIUP23sPvxeVSQqk9+gHqemKR9o8oVqRmDMnNmlNgNw0wdRv8JsvX1xeFO9iZNCPxXlE0EyrJGF0KiErexNtV7HcEg3tYbYhLKMMHtBzw1MscmgxLIiy6NeoHqqt0FmspFvK2FynRSN7newt/rrjZ2Sjszrba/TDHm2VyijaokVE5aJT6WVmYkKoBDbItgL3Uki7A4VQVDix6f63xZ3Eedwy5dHRMuiTlxTKzyWDEqjFmsLeJSbC/UW7YqCa4FKgpwLlokrqrVCZkV4iCGC8u8YN7EjVqHh+wHEnOlkFVQK8fKPv0DKmoMyrpYeIqSNRKt0PS2J/sjMmqtFRp5oeK4vtvEun+7pv64l8dkmuy7Qo5ZqEuwI8LgOVBFrm66vQW9cZpNSHdopDL6/lKVcHUCbWA+RF+/wAsGq7iiaemlMkEarAEC6QRfUSl9779zbvhh4fqcxlgaqqczqIoQxUaAGZiDpJAJAAvewAJOltrC+B/FwqjTVCSVj1kZWKSJyCCLudQaM7o4ABKntY99qk4tgrorp5Bc7jG1NNaRWB3BBG/lvjQ0Z/KX7sZFSnUACCSbAfPbv0+3AqGPJ4zCKvLR2J6qSFC/aAbm/yxYPs5oPwjBJK7NFpfQFGlugDdSg28VrYqWo4ZrIiqvTyXI+qNfp9TUB8ji7fYfTPHRzCRHQmckB1Km2hN7EDb1xvkxY1C0YxnLVTDJ4FTtPIB5WFv9ftOPV4JAP8AKZPkQLf/AMw18weY+/HnMHmPvxy6UbWDsoyjkEnmF7qF3FumMwTDDzGMxQj3FIcZ53SrnrySOdMUAiLINVpASbWvva+++x2wd9qftDaAmipCecdpJB1S/wBVPOQ+fa/n0pU5TUn/AIec/wDSc3/R1x14ez2rltZjPJvUS319oWWgHUZySP5o7nbza1uv34qDM6i0sjRSOqu7tZSV2LErcDvbGjZVUDrTz/2T/u4wZPVHpSz/ANk5/UuNoYceN2mQ5TkD6uZm+Jmax21MTbb1xxZLt9n+WCL5FVnpSVFh/wDRf9Phxucgq9X8lqNxt9C/l/Rwm0VTIEQsdQ2I6W7fbiy/ZJVNGJZra35qr4juRp6X62wjHIqnr7rUdP5l/wB3EzLWzKnVkiinRXIZlNPqF7WB8SHe3lhZoKUaXIQbTst3N6ycys6oQWIZbajYqABbp5dPU9saNnVeP944+wf5r0xV8mZ5md+XIfO9In/axoMyzTpy3H/2af8Aa3xyfhWvE17zyLUi4hrgReRrd7ov6PDiZlOaPHK8hjJ172vbzJ3t3O/6sU/+FszG+h//AGif9rHsOZ5l/NH/ANlGf1w4f4V3yHeeQW9qeYMa5ZFdkZoFuFci3jkNjp+YwjMik3Nrk3uSSSf24M5lFVzSGWaOdnaw2iK30gKAFVABYADYYiLlVSSfxepIv0EbG3oTp647IwUEkYttsKvwdMsixPLSK5bQVaqW6P8AkOL+F/TzBGOdbwhUpLDDaJ3nYrFy5Q6sytpYXGwKnrfpg/mlW8iQ2pswlaKdH5k0K8xUUG8epBqkBNjdrW0jpfBXKuK5IQoOXVbFJ2mjJiN05krmS3mTC5X+kAfXGeuaK0oRKbhiaSBJ4zE6ySLEqiQazI5sqlexsC2/RRfHen4NqpJ0gjEUrSxmRWjlRkZVJDWcG2xBBHXBukWNaY05pc15cvLMycu6IylC7xX3MjaNI1abK53NgMRuJua0ySUUVdCiJylQwmIxJuQqaGZmBOosx6k79dnrlYtKoW8urJKaRrFkJBil02Dab2dFYg6WNrah0w5UdVstTA8cBhXwOAWjy+NrjSbr9LVSkkW3Nzt6JbZRU3F6acAecT/swSyaOoh3FNKzK2tQ0LMuoAgFkIs1r3B6ggHzBWTGpq1yOMnHklcUwU4VJFvTytpUUxBZlWxZpZ5Dcl3JBUW+G3lttwpRwtrdh7xIlwaZNQd0K35kLj/eIRcqR0+dsB5cvqnZmeGoZ2N2LRuSxP2Y9gyyrQK8dPUiRW1h1ikBUj1At1sb4h4Ipc7jWRt8DvJOLGoneOXngKZWFoMwQbBZLKeRUx267dCSdiSu5hmbSMpeRl0Hlxs1jJTMLjQxABlhIFr2O1++zD8zNbK8jSQyqZCC0aROqkjcnRa1yRqJ87nEAZbMdWmGU+LtGx8/TFQxJK2EpMmtIzgCJAoLeHeypKNzymv4dYGyH7OgI5zZkvwvEQD/AByg28Q2DqLfRyDv2PlYkYIUlFO4JFNLqtaWMxsFmUd128Mo67deo3uG2ky2ujZXhSpkjboDGx27pIluvYgizDcdbC9hbj97O6uOSmELONce6SAb6Qdnt+SLhXX6psTswOHujkmAFoywIvqhZWRvUBiCL/diiqOiqYm1wQVkO4YLyHblsO6Nselx52Ok36k/TcTVYvzKTmE9X9zkRmPm3KkUMfsxzTwXui1MtmqcG6yMA+knQWGrT3LadkTzNz8+xqDi+v8AeJ3CxuYlsoJpEZm033DlgwViTttsehxpmGZ188TosJCfE0C0rRK/mepMjDrpYk9x0wsFJx1ov/wP+zFY8Sj4ilJsMUlfWIABLVoB4Qiw+FR20jmi229gABfbE2LNa7tJXEjc2p2a3rYTG3zwuyZS8qa44JEkUeOPQwDgfWjuPiA+JPtHcYJcNVslLDUaqaZ3d4WRfpkto5t21R2OxZfCTvf020aVeAlZ6vElQAJPfqzSTYNyRpv5BuZucQa6aWZnqWM9QyAiRpICyrYdGIZgLC/W1sMubVs1RF7xBNMkwjQvSiJgodHVi6AjSAGvLtqe/pqtxpns9fITNy6lqgGHkTBnVyWiZGA0qWNg2u3hBG4NsLVS4DSPfDFlqqyTmLHaWIDWVVSDBHcbjV5dCMeZjF+PUpL671kBDXUgjlVJ2KqAd9t7nbrir6evqwqCSgjmZRpEktK7OR2BYWLW6C9zbbHstTXFo3jpmp+W2qNaenaNQ/dzsbvba5J222BN8u5bfJVpDHw9Uo9KaeZJFEcsjI8ekkAsSQ6N4rXNwyg7bG2IOb8RPLDUDkLyqdFVCQVLBm5YLDUwvuTse2PF4lzv+crT/wBI/wDbxBzvMM1qYzFOauSMm+lomsSNx0Qd8X+F3ttE976idfc46UbWkU3+sN/Lfr9mJZyOb+ZmH/Tb9mPY8qmF/open823Xy6dcD7O14j73yGmo4vMZHLWOUsLuw1qvXYDUoY+ZuAPn1xZPs1AzCCSWVeWUl0DRax2DG919cUh7nIoBaN1HTxKR+sYvP2Ej8Sm/wCef8K4rN2fHGFpEQyycqY1nhSH8p/n4b+XXTfHp4Wi/Lk/u7f3cHsZji0o6LIOXZWkN9JJuLb2/wAhjMTsZihHzzmjf/6Rb/ncX61AxvwPlNbWtK0lfWLDE5Tw1D6mI7XJIG1u3fEbP2txECPzyH/EgxP4VzapoXnU0VS6PIzMoie9wSAyHTY3WwKkjpcHy7cl6FXRGEOX6hWsyipo6+hdK6skp5KlInSadm3NyOlgyEKdiNrd77A/Z/l9bmAlkkzGsjgRtPgnfUzW1WBJIUAEb23vgpNxDU1tfQoKOoigjqUkJkia5N9NztpVVDHuepJxA4FzabLxLE1HUyRs5LKsbBgy+EMl10kFbAqSOlxe9hlUtPvg08QxNklRR5hQutbVywSVCxMs0zNuQWHSyspCnYgWt3vhb9neS1eYq80tdVpCjaPBM2t2sGO5JAABG9j1wdn4jqK3MKFFo6mGnjqEkvJE2pmvpu22lVVS3c9Tf0C+zfN6nL0ljloqh4mYMQsbB1YAKSt10sCNipIOwthfMoh4h+bIp6LMKFkrKqWCSdY2SaZiQbFh0srKQD22t3vgD7Osmq69Gmlr6uOFToGiZ9btYMdySAoBHY7n0wYfiGorsxolWkqIqeKbmEyRnUzaSAWIGlQASBv3OBvs7zeehiaN6KqdGOtlETB1cAKSl10sCoAKkggrcXvs/nUfd1uG1hubJZ6PMKFkrauaCSbluk0zMQdJYXtYMrAH6otpPW+F/wBneV1leryy5hWpEpCjRO+p2sCdySAACOxvft3NfhyqrcxolFHUw08Upe8kTAsxQgFjbSoA2G/1j9g72e5tUUMLRPRVTofGyiJgysAAWQldLKwAupIIK7XvsfMo++Nw8QvLlVTRZhRMlbVzU8spRkmnZiCFLAGxCspG48O2k9cAfZ7ldbXoZ5swrUhVtA0VD6nYAE7kkAC47G9/TBhs7qq3MaICiqYaeJ2e8kTAsxQi7G2lQOgF+5wO9n2cT0MDRvR1LofGyCNg6vYKSmpdLqwAupIIINr32PnUffG4bWFpctqqPMaMrXVc1PIzqyTTsxDLGzWPRWBFiDbaxvgLwBlldXRGeXMa1Ig2kBZ31OQAW3JIAFwOm5+WJ7Z7U1uYUoWkqIqeIyMOZGdRZomF22sAOgAP1j5i0DgDO5qKAxNSzshOsry2DI1gCVJAV0YAeG4IIPW+HU1Hz/xuG1haTLqqjzClYVtXNTyGRSsszMQyxM1juAwN7g6RbT8rhOBMrq62HnT19YkWoqvLmbW5AGoksSAovbod79O5GLOaquzClHus8UEfNsXja7M8TLdtrC2wAB7nffaJwNnM1JTGKWkqXS+rSI2DoxAB06hpaMgAkbEG/Ub4VS07r3uAQ/Bk9FX0rJWVU0EomBWWViVZImazWIDDcMCAOh8sC+AcuqaqMVNRW1nK1aVRJ3BkK21XOrwrvbbcm/S2Jozipra+nApKiKnhScqHja7M0LgsxtYH4VAHn13xG4JzaWlpuTLS1LoCWAWMh0YgarBgFeNrXtcMDfzw6ko7++QJktDU0dfTlK6rlp5o6iwllYlWjgdiG30t1Vg1h06bXwP4Ey2sq4feKjMK5IyxVBHUMGbT8RJYkAX2tbex+2Z+EamsrYrUlTFDBFUBA8TXZngkBZyAFBJCqqi/X1wO4Fz2opITT1FBWPGGLRtHE2pC3xAhgAVJF+twb4lKSQBaogqqOth011XNBNDUlRLK5KtHA7ENvpYglWDWHy2vgdwLltZVQioqcxrljYkIsdQwZtOzEliQFvcdNyDjvNmFVW1semiqYoIaepEYeJrlngkBLELbUxCqFH+eInA2fT0tOKaooKxkVi0bRRNqXVuykMACt9+txc4N69+YBKtiqqKqTTX1c0EtNVMglmclWigckNvZipKMGAHXoLb8uA6GqqaYz1WYZgFkOmHlVLhvCbOx1Ei1/CBbsfTHGszKqraoAUdRFDFSVSRCSNrlpIHuWOmwLEKAo8gO+OHA3EctLB7tU0NW6IxaNoojqXUbspDCxW+/34N69+YBGvirKKofTX1U0MlFVPHzJWLK8cTGxF7FlOlgwA6jpbEjhShnraaOqqK/MIy2pdMM5UOEOkOb6gDsQQBuRfzJH1OaVFdUuPdJ4oY6KqSIPG2os8TXLELbUxAAA8gN745cD8VSUtOKapoqtkQkxvFGdS6iWKkOLEXJIN+5wqde/MZNzGnq6KolArqqaGShqZIjJKxZWRCCD4ralNiGAHUdMSeGMnlrqeOqnra6Jn1DTDMVDaTpD7lgCbEEAC5F9r7javOJ6+ea1LNHFHQVKRKyNqJZCSWNra2IGw8gBjXgbjCSlpxTT0dS6qSY2jQ6gGOoqQw3FySDfvh1KhMl5lT1lHUVA99qZYnoJ5ImeRrqVGmxGqwdTY6hbqDtiVw9lE9bTxVU9dXRtIpukU5UNpYqHFywBIG6gDffa+BlZmtRXz1BFNNHEmXzpErI1ySAxJOnd2t0G2wHz34J4rlpqZaaooqtljvy3jia4BJbSQy2IuTY+uFvQG1ZHWUU1Uvv1VLE1BNJEzyvcFWCbgttIp+sLbEEWvbBHh7Kqmtgiqp66ujaRTdIZygOlioYXLAagLkBQL/PAmsrqmumqm91njjWgmjiV42ud1bc6d3Y32HkBjvwZxVNT0601RQ1hEdxG8cRvYktpYMttiTY+tsPet+QfkeVqVtHLVx+/VUsZoJJonaV7gq6g7aiBItmGodjfa9sFcjyqoq4IqmWvr4jKtykU7KNmIDC5YWYANpAFiT0GwDVVZVVk1U/uk8cYy+aKJWje+5DbnSNUjN2Hy7XxN4R4plgp1p6iirG5YtG0UJvpvcKwZQNrmx/Zhb1YHOpWtpJayNq6plX3Fp4XaV72EsY6ajpdbMpIPfyNhM4TyOsqIEnqMyrl5guiRzkEL2LFg179QABtbffYXPVVNZNWP7rMiigkhijZHvYOjWJK7yMbkj7O18G+FuIHgpUilpqlxGulWjTSwHUKySWva9gVJuO22B2luHoDJzW00ldC1bUygUfOgcyPq3lQDbUdLghkNuv22wS4V4YqpYRLWVtcrOp0xLO6GO/wlixJL99JFhfe/YHNUVNbPWytTTInuLQxR6HPhEkZAvbxObsx+fpfDDw/wAVSw08cdRS1crIulXSMliB0WRXAsw6awSDYX3w3qSFtYGrI62jGYRtWVMiimSWCVpXuQZkB6sdLjdDY/cDgxwVwvUz0qz1OYV15k1RpHUONAO6sSWOpiLG1rC9sLdXPV1klfM9NOimjEUSct9lWaIgX0jU+7sbDueww0cKcUzQUkcUtFVPylCI0aWayjYMkhUggbXXUDa/phy1KIKmxZzmCogTMaWeqmqFEMEsTSOxupmj30sx0sN1NvLDx7Cf5FN/zz/gTCDmtTUVH4QqZoJIVMEUcasjAKoqIrDUQNTdWPqTh/8AYYPxOb/nn/CuLlfcu+q+xC/5NuhZGMxmMxyG5mMxmMwAfL/tLkK5nVMCQRJcEGxBAB2Pn64ZpeGZQ0KnM6xdcyQkl9QJdGcaQkxZd10/SBet97btvEvsojq6iWc1LIZGuVEYNu3XViRL7O5SY2FaEaNke6UsalmjFkLsDdyoJA1Ejc47Hmjpik/DoYRg02VDDUzNRvUCvrOYgUsNbiMF30iPWZAWl03k2UjSDvhghyioFMsrZnVBXjhlL62IUSOEIAWUykjV3QKbdRcYdj7LvxZaU1KGNL6T7qmtSSCSH1X1GwBPWwtjtN7NmMSQis0hUWPUKePWyIQyqz/EVDAG1+wvfClli+OvQpRZV1K87GsjOZVglpxIUXnG0ojJBsDKDqsGcgA2VT1O2C34KqPdY6hszrEvHHK7GQsqiSRU06Vm5uoar3K6Ta1xh2/2YPpdfffjZ2LGmjLDm7SaG6oHGxAPytjaX2Zu0Kw++gKqCPUKaMOUVgyoZL6igIBtfewvfA8sfB/T9A0sr2HKcyda91rKwx0jvGCJJCZWR9JAAfay+Ine1x13tM/BVR7pFUHMq5NUcUjsZSyASuqWCrLzNQ1A3K6Ta1xfDn/sxkBmK5jODPq5vgFmLsGc6QQFJI6i223TGz+zV2iEJrbKqJHcU0YcpGwZFL/EVBANr72GG8y6/QNLEDlTcupAzKqaoilmRIVqDqZYerlTJqNwGNlBPgPXA/LI6+eiqqtayqtT6fDzpPF3ffVtoUhvW+LSHs0e0g993kZ2L+7R6wZf4zQ/xIGuQQD32tjlSezF4lRI8wlVEDgKIxY8y4fUL2ckG297AC3TD7+NfoLQ7K94yoKiijida+pkLsyODI3hYKrfVkOk+I+F7Nte1sQ8ppq6ajqatauoCwMotzZLN01m+qw0Kyt8ifLFoZx7MzUoFlrD8RkJSCNNbkWLvpsXcj6xPfHKm9lzoixpmEioquoURixEtw+oarMSDa56WFumGs8dPn6C0OyvOLqOso1jb3ytYM7xku7IGKBTrjtK2uFg2zGx26Yk0+W1wXL2kzCpjSubTq1yNyySOWB4ty6kEHYDe52w8Zt7KPeNAkrLBAbKlOiC7W1MQpF2bSLn0GJDeziUtrOYSE82OYAxLZWivy9Kk2UC9rDqNsLv40t9/Qeh2VlGKkwF/wAI1YlMMlSqcx9JjjkMZu/MuHOliBpI2Avvt5FDmBoRXmvqUiMwiJMsp0p0Mlw26h/DpAviyf8AZkwgNOK1tBBH8QmoKx1Mgf4hGzeIqDYn5nGn+zCTRyvwhJy+VydHKXTove2nVbVq8Wr4r98Pv4/Xp4fkGh+2V5mgq4lrD+E6lmppki08yUaw9wHvrso2Ph3O29sS4MuzC1A0uY1UaVp06uZKdBJGgfF4i6kEHYC5v0w61HsoMnO11znnsGl+hUaityvQ7WuelsSpPZ1MW1HMZD9IkoBiUhGjvoKLqsgF7WAAI2OF38a5+nl6BpZWeXZjM1LLMcwrS8YuymSQR+J9Cpr5l+cwu62Ugad+hwS9zrilBK+YVSxVb8vUzPdLkcrZXszOLkH0ubb2dv8AZh+Le6+9KYwSwvTpqDN1YNqvqttfsABjt/s6mJucxkI1RsqmJSqmK3L0qWstrWsLXF73wpZYPf8Ax+gKL8Sul5xpJJPwhO9Qhc8lZvhSNrM7KZQ/QFvCDtY+ZxI4Qy6orITIa2rU84xDQ9wvgVtTa51Yr4rWQE7dMPS+zJhE0Xvgs2oF/do9elyS6iT4grEm4v3I6bY9yn2ZGCMxpVgjmcxS9PGzI9gNSFr6WsBuPIYTyQp1z6D0Oys6rMJRRQ1MVbUsXbRIpf8Ai20ki+mYsA1m03AuEJ22BI8PU9VUU5m9+qg30trMWUcpA/iBmEhve3gRsPGY+y4zoqSVgsCGOinRC7AFQzlT42AJFz5nzx1oPZs0MPKjqwLFishp0MiawFfQ5N0uBa43wPJDTtzfQWl2VxxE2Y0aQ86qqQ0qayLuAhubIW5m7gAEgdL9+uCuT09ZNSLU/hGoQMkjkk3RRExUgk1Afe17hSB3OGas9krSoiSZhKyx30gx3tclj9fc79T22xOpPZ3JFCsMdYoCBgr+7RmRQ5LMockkKxJuPXBLJDTtz6Aoysr7iDN6mDTpzCaSN9QWRSCGKNY2MdQ1tirWNjZhgjkXvlRTc4V1TdjJbcaQIlDHUGnDktew0BrbXwy5p7K/eNPMq7BSSFjp0RbtbU1lIBZrC59BjtRezVoohElYNKlyrGmjLpzAFfQ5uy3A7YTlj07c+g6lfkJ/E1fV0bKrV8zXLISBddSEatJWoNviHhazDa4FxiVljVUtF7x77VE2la+xVRELnUpn5hLWIBUMASL4ZM39mJqdPOrCbFm8MEaama2tm021O2lbsd9sdqX2cmOEQiq8IDqrciMuokFnCubsuoXBt2OE5Y9K6+gkpX5CJnPELokLJW1X0ys+mWMFgobSp8M1gGIa3y9cF8toKqanjlWtqAZF1BigKC8vK06BPzNX1tlt63wVrfZGsramq3vpVB9GtgqqFUAA7AADpgrR8BPEiJHVqrRgKsnu0ZkCh+Zp1m506t7YJSx0tP2GlK9xD4qqZqWRUFbK6umoNa/RmQ2ZJiva9gbi4vY4KUOV1UsEcgr515iI2o/CNcgjsLT8wNvcXXT2vg5mvsv94K6qrSFBCpHAiKtzdrKpAuTuTiWvAMgjSMVaAIqoG91jLlFbWEZySWTUAdPTbfA5Q0qnv6foCUrZWXEklXSyohq6064xKBLI6OoJZbMgkNiCpOx6EYJpSTvHEYsyqJJHUagk5ZUkaNnSNrS6lLMugMVte/phrzX2We8PzJKw3ChVCQqqqouQFAawFyT8ycSJfZy5CD3wLoZH1JTorM0e0ZdgbuUHS/z3O+L72NKnv6E6HbKvzPNKuIoprKosY0dhzpAULjUFPi6hSpPTckdsdssrKuVC75jUQoHWIMZZW1OwJtZWuAFUksegtsb4fKz2Sc2R5XrWLyMXYmIbkm52DdPTtidkfs6alvpqlfxCRdcR8DrcK6lZVINiQRezA2IOKeaGnbn0JUJXvwU/JxHWgke+1JseoqJLfYdXTBzMcymWmp6iLMa9lkZklBlN4yttrCUkFhdlDWuADthvn9jwdmdq1izMWY8obkm5PxeZODj8ByEg+9ILNr2pIhd7qdZ7GTw21eRYfWOKlnx7V7+go4572VZxbLIvKVayqngmiWQc6QsL3N1IDsupCACOoP2Ys/2GD8Sm/wCef8CY4Zl7K1nKlqoqqCyIkKIigkk2VbAXJuT1J+yzZwRw0KCF4hIZNT67ldPYC3U+WMsmWEsWlclQhJTvwGLGYzGY5DoMxmMxmAD/2Q==;" parent="1" vertex="1">
          <mxGeometry x="326.83000000000004" y="-1030" width="152.34" height="60" as="geometry" />
        </mxCell>
        <mxCell id="6CbB4MI8648zA9k0CxYu-19" value="" style="shape=image;verticalLabelPosition=bottom;labelBackgroundColor=default;verticalAlign=top;aspect=fixed;imageAspect=0;image=data:image/jpeg,/9j/4AAQSkZJRgABAQAAAQABAAD/2wCEAAoHCBUUFBgVFRUYGRgaGx0bGhsbHB4kHR0iGx0eGiAjIB0iIi0kGx4pIhsbJTclKS4yNDQ0GiM5PzkyPi0yNDABCwsLEA8QHhISHTApIykyMjIyMjIyMjIyMjIyMjIyMjIyMjIyMjIwMjIyMjIwMjIyMjIyMjIyMjIyMjAyMjIyPv/AABEIAPMAzwMBIgACEQEDEQH/xAAcAAACAwEBAQEAAAAAAAAAAAAGBwMEBQACAQj/xABDEAACAQIEAwUDCwIEBgIDAAABAhEAAwQSITEFQVEGEyJhcTKBkQcUIzNScqGxwdHwQpJigrLhFkNTc6LCJOIV0vH/xAAYAQEBAQEBAAAAAAAAAAAAAAABAAIDBP/EACQRAAICAgMAAQQDAAAAAAAAAAABAhEhMQMSQWEEMlGBInGR/9oADAMBAAIRAxEAPwBxXLgWJ56CvnfCqfEMWlsqXaNGjfkV/nvpU8S7e+Nbi25UMc4zZW0Oo5hlyiJPWrF5IcfeCuFwdaxOEL3tjPMd4giZ0GXLrrr1qexgWR85ZTpAAEfHXUzWqC2amcV9zigTEKLN7vLbsFLyVykiPIzp7T69GA5VUfF3FaRcbckCBAJAg6ea7+ta6L8hbGN3gr53opd3eIXiuXvNOhAj1ka76+tZPG+N4m2qZLrc83mBH70KF4GyRe3mJHFO4a5b+b/ODb9kezmKjx/DWmqLgr8yG+c+WBPel839WpAiemk++m+nae6OINZJBtCRECdEDb771Q43K/gHJKg+7wVxuDrQ/iePAKcqNMaGg/inFb3duRcctlJEHyoo0HTdosKHZDdWUcW26KzQApPUyK9YXtDhrphLqt4ykiYLCZUHmdDX5xd7jZs2YljmaZkneTWr2Re587sd2C2S4rEAEiNQZ9xP4VjrKyP0b3gqti+I2rS5rlxUHVqzb/E7iWw5t5RpMmTEwdOW/r5UF9ubd6415w+W3aNtx5l1hgJOmkH3CtNUFkmP7UXxcOS6SjOcpGWMpJy8pOgFUcR2pxYiLzCVzbJz/wAtZNpCbaEfZQ+kTUT3AxSOSAHTmCK8MpO3k9sILGBjdjuMtcDrfvBnkZA2UGI1gACaLe8HWlBwmTikyqWLW7mURuSVA/GjDsZjrpW8t/27bragAkAIgB285JPnXp4ncVZ5+RVJhjnHUV2cdRUFm+r6qZFfbl0Luf5oP1HxrrRzJs4612Ydaht3A2oMiq3Eb/d22cmAokkxoOe8CqiL+YV9BpWj5R0NwAKxUFpYBQoEiCZnkDoOvwYfCcaL1pLo9lxmX0OxodJ0Rjdsj9X6XP8A0pG8Zey5D2lybh0mfEJkjyP6U/8Aj3DzeZAGAgPyncrSv432SspffMXCnUhQAASQOhgGSdJ/GtKDloroZfZjTC2Z/wCmv5VZbi1rYuNeXPptWHb7RWMPYQQ5VVVRCydoH/8AaXNztkzXLbpbQEkC4GEkknUqwMga9abSeQ8wMvi162pJLwW21ieew/Pfzofv3EdjDDrEjlXzt26IgZiwAOkASdhz050N8EvWnViC8AkZSFB2mdNKU7dEErmhvH2rjg6zBbeRCmI3noa3rJGQRMRpQ5xnEME8ByyGJAg/ZgH+41qG2DBNVm4G/pNyAeW87+8U3U4Dd+fPfKDuzJDBhOqBdpBB3pRYa4ZRJ8IuBo8zAJ+AFNTD8Zutj7ts3G7sZwF0gBUn8xO9a4e1OjM6xZq3rozlTbYgeY5awZeconr/AEjXetZUtth84tjQGRlWd5IAMg6TG9YF/hV++z3FJi4gAJGsCTp4vCDOoFE1uzcOFNuCj5Sojf1Guk1ylJ3o1FfIO3MLZCu8JJnIDbAAgaDQaiYqfgtq1auF2W2rbBktkNMmZ8PSqXaHBXns27bE2/EWJWYJAEbNoOUmvlvC3UdGYkj2gCG8SzmnfQxyNKnJrQ0r2GmOdAgLkgBgRHXUjflQx2z7prF2MxYshuDxxOURIGh0y7UUYuz3iAA9CP4eWtL/ALZXEfvrD3RbyulwQrGSLaCBBGpjQmsskD1q8VtrAnwKKhRjCyXaQZE7GdNPStTE9lL6qFNwMPCBlWTtz1AArPPZu+CIL7T9X7439K8b4JWz1rlikbnZdcuOtyT9W406kr0piYWzaL3MoBfMDc0/qgRvziNRS7scLOveYhUK3AhdQQNs5UjcSABoedGHZTEArebvA6h/b12C7EneP5tXfjg4qmcJyUnYQogGwA9P551j38Vbv3HtqRNpTnLKSASYEQQTsfwq8/EUBiTuBoCdTy0HmKE8HxJLGJxFy4r5HMqVQkHK5M+mo+NdTmEaXGRSwJ8C6oVyySRr+lLvt1xO5cLq0quTQTp6xO+v5UeWe0Nq8G7tXJVROZCBv1PPQ6UE9s7L3Fa6yZEy5QeUny66D4UwyTFlhrWZoLZVkZj0H8mv0X2Uy/M7Hd+xkGSTqV5T5xSp7NfJ7cuur33UWtDCk5nG+h2UHTXzpzYDDJbtrbtqFVRlUDYAcq5uLTGyjxsXJBSTCOYG5jKQB56Ut+MvcuMl24l1SbbgrPsbiIiS53HqN6ZfFbTs6BDHhafitCXaHgdvOtx7jF8pWAeRBE7bjMa68cktoxKLegXwWJYBbfdvlyk5m3XfwtpE/uNKEsRirVx7TLbVCpVWVdmgjxHzNHiYcW7YtrMAHffXWgO9jRcuWj3aoylFOUaMARqR1rPI05KkbiqQ1u1WIOVVQA5iQR4dRGm49aGsL3inKEB5keGN99NztRJxmytwoLrhPER4NZ1ggzGunnv5VJwrgll7kB2YBZXSDvr7pNbSSlkzeDKto+TM6xG5gxv561Tx/ALmIWbWVVAIJOgGbKZ/CirHWntW1tWRlIfdysNJzdSY3qk+Jezn7yGGUHKHXUyFUzpEQKU6YeC0tdm7q3Fn7Q2Gmh60fcJ4S/z18SnjtEvBCsQcwiNoIE7+VYHFeK942WGUu6hoOhl8pJPPQtr6dKc+FQKigAABRoOWlHfrdejV7K2FIIEVUxPE+6Be9lRANWYgCdNjPUn3CrbXArleonQfE+XL40sflZukhACxWEImY1kz67Vi/wAiE9ztdgrgAe5aPLV9p3/Kvv8AxdgoH0lvQQPpNYOm/nNIquotjR+m8DjFuoHQgggEQZGvnzFZfEsXmd7QtywAOZSM0bgxEiYI3oV+Sy6/cIubwZnkRroW5z59OdED2bgxZuKZzfRgmIYqHIkDaNROk1Z8LHpTw3EUYZs2bLKMO8BE7ydNCPyNR4bFW1AzOzQ6j6wEloJCxm1Jkaa/lVdeALYzIJBLd4fESPHoZMaagcudVk4HaBDBHDq63tW0GWVGYAQCCu1dFZjBB2zu3XdFwoYKRncZQGLQIJneAR6VucJZxhELlQ6AK2mU5zvLK0HaJERHOpeKcHfEulxFTJl1klTm0BiB5GfdXp+B3shSZXMpAUj+mYOo5eEb8jWfWa8Kt/jRUtqkhVOt0iNRvLzB/atW7xK0yKXIWAAcxUgE8gc/OCOcgUPYvsgLrOSrZmVAYcADJH7flUF3gyMFtkPFu6oAlR4hm0nnv+BqdvSCkgv4Gts50Fw3MpEhsvhkswGhOup35RWJ2l4Tfx1wC0UFhNAS2jNsxgTt7OvnVa1/8HC4l7asDcuaEmYdpBPkBv61jcL4/wBzkfO30drItuTldy7e15QQxO+kV144y+5bMSktMPeB4cYW3bw924jXIOQDQkDWAJkx1retjSlOOIrib6X1uOl9SsKQWtyNgGGqKddCDuaauGYlQSIJGo6eU86xyxaed+moSvBm8ZsM7LlbLCtPxFBPHscttyozOVHiIMxvpG8/vRpxqxndZbKApn4ig7HW7SaBgTLc1ie8M55122jzrMaSybMi/dYuIPhKzGnMH3x+4oLv465cuWc6Q6lACFiVBEac+etElx/pEAaAUBnlEHw9NY/GhrGYq81y13qkMuTISIJUER6jzonVqiQ1+K5bJSEa6Wckq+UxMbSBodTH+GalwONbMXFo25nVQo1XWNTlMxtodNxQB2m7Qu9y4jAjMiZSrMCpQsdBMEmdTRh2Hxxu4RO/RrkuRnnWQcqyBG0b+VaUrZlpo99oVm0c3eQ2ckrAYDMuYiCR1MbxWHbwqpaItXHdCfbuaeZAESDoNaJu1OAKW9AWZ2hQgg6sGA8zufPasfEYZu7YFWkgHMwIJGaI6DY++p33T8JaB3Gs3eIMumdP9Q19edPOx7C/dH5UlbuGuSpLLlDLp/mHlv8A706bB8Cx9kflWZGgT7TXwuItgkidJkgCY6df/Wg/5WVhkAMjKg+Ab3UyMXgrd24S6BoAgyfPoaGu23ZI4yGRoIUCCTHh2jroefSqmyElXUZHsDd+0fh5+vvrh2CuTq5ifsj8prNEFHyXKe6Tb2rnSdz5yfhRnx6/3douqkkEGFBLGJOkEE7detZ3ZTgC4W2iySRrJjUtqTEab1f7QYfvbRQZtxOXfY9K3FAylwLiHePGUkHcsG3An+rb0r2eI+F2yWsieAnzzAZY5j9a88HwIS4rLnjK2p2JnL9kaxrtVI8JbuboDkh2BygnVy8zPIz9nSlJhgEu0fbvEWrr2raW1SABo3U6rDCJnz2rb7M9pLmMwWJfEEL3eVQ9sEHYMCZYyc0bRpVhOA2Q6d4hd2ykyVOxIMSJIBifSrFlMPh7bj6u0gXOdNSGy+KBGY5iIIPs+VFfkQK7GX7j8VfOxfw3CczaSIg6aTPTrTGx9vJIkgibz7RrPgE6iSD4uVVcHew9t7dy1bGS8BBEeLloI3Gh0pYdtuLXnxj/AEjgezCsQIDNAgetWtFscGFxC2ldchY+EkErqzQMu8aTvtVy/dUERbRlPPocwWNFI/qPPka/O3/5O9/1rm8+22425706uzHFimCw2YFibalnJ6hjLHeSQBMGS1CbZNBYqKNgB6CKsW9qo4TEi4iuNj/Ogq7aOlUiRi8etBmWWgBTz31FBt3FWhmXNqCcuogHvGJzA6kZYiKO+LYBLpXO+WAdOtZx4HYbQXPgKMUIAJgUZQ51MAjy0EeuutBrriLrILgZspChiNgCBGboKd7dmLWv0p/CqP8AwLh5k3X/AAHMEbR0FafV7AVnaDEC3ce2basHRSGI8SkTs3ITTA+T6+9vA25tuwLPJ2gZ41G+2ugiKIn7LYY7i2T1ZQx/E1qYbBrbUKrKAOQH+9CpE8kNordRWdIO4DbqdR5EGqXG8FNnLbXaNPStg/GvptD7S/z302IsL+BvMcq2zBBkxt05/wA091zD3eI2yqd6Mo5A6fEiV9BR9dwy83Ufz1qlc4XbP/NQfD96rRHnhzMFGdpbn093lWgGqtZwCrtdU/D96tpZHJ1P89auxHysbir4oXF7pMyFfFqBB1289vwit02/8a/z31xtf4l/nvqbIwMA+Jlu8H3do57zr020rTRzz3k6+UmOe8RXu7pMkVXsp3hIDBYpvAUWQ9RpZGUqZYHkfj8Z51ImCI/rU+7/AHqYYc/aWjshBzHYR/ndu4hgKFQLlkakkydxoDy99ZGI4O1y1ibVxyFutmBygEHvC45k5ZDakDSKMrmHIuBsyxA2Gumbny3/AArxYwIls2UzqAVA1ljPmdY91ONhkGbPDhb+bKjkCwmoKzMt4p6eJelAPaLs/iLt+5ctoCm85gDGZl2nbQ062wSmJVNNvLn0661Be4PacyVX2SujECGmdBz1OvnWXQoRLdkcYCR3Y0YL7a7mI57GRrTh4BwDJhrC3Cwe3bRWVWOWVDctj7W/lWm3BLRBHVVU+NtljL6HQa7mKvi0eq/H/apMiPD2VtqFUQBsOms1cs7VCLR5lantrAihuyKWOUFhPT9agUAbQKk4k6qZYhQF3Jgb0vuK9ubVq4Ua1egHwtAAYTEiTqDFRB/IqWwoJg0urPbu0txbdy3eQtEZ1A32/q50dDFomrNEBT/cYHxOlKV6I1TaWNgKqioRxFXG5G8iDOgB/Iio3xyKYMjQEaGDMAR1OtKiwslxCsVhTB6+4j9Z91YeOxZtye+kgyACTtOh02PXlG1anErkW2hoMUCXhmkE7yJpuio08ZxRrhhbjoWMAQpCzpzG2v8AvQxheI38ErWXuJdctmLmWygj2QWievTWpVZEIAb+oSTyiJ9NBWVxTFJcc3LZzIdCwBgMOR6dR1rr9Oouf8jE7Swad3iWKxoXD2nS3cLSHWUzBQSVJWSOunSjeybyG3bUu8BVuvkESFGq6ayZ9KBOzVy3ZuLibzC3aSQGafEzAqAv2tCTp0pmYbGIT7SwQCDOhB1kVfURipVEYNuOTB4ta7u4Ha8tobs1wEiWkQCQMo0619s8Zt2GnvEuZyskEiFInNtB08+dQ8dNtnQXUN6QYzSQPbgkAxGnT4UJOF7xwBlAMAQYI0Eanbaufv6NG5xTi+JvFLdu5kZ3ZRoIiGKkn3Csv/iu7gbHc3HXEYrOSSSWS2DspfQ3DuYH2t683sSouW5YDxgzOwAOs0DY0eNmzBgT7Q1BrmIR3O12NxT27QuJaLOAGQFRLGBmMnSeVNrCXSXKhycpg+AgEj2hJER5jrSZ7PcHm5au4hlsWQ6sHuHL3hUhsqA+1Mb7CmzdTvLhi5lIY6ep05j+GmOXkmXz84GbxA81gKPcSR6axNT4fvP+YZ8K6eHfXNty9n8a+4dcqgTMACalNbbCj7p0r22HYCcs+QiajBjWr5xaZcxdQPMgfnWGJQUipRFZ+O4laUM/eJABJgg6DyFDiduMKTAva/cf/wDWog20q3Y9kUE8M7YYa7cW0lws7GBCNA9TEAedGuGPhFDIEe3YBZFIkFWkHY6ik3xtLyuRcz5ZlM/2ZMR0HlTj7dnx2/ut+YpOcaw95HIuBwpMpmM6EmOf4Vlijri3hdtrfzghkjPqYkR+EU6sSyQpdGMKNQdNZ5c9ifhzpJ37N23cQX841UiTJ1g/tTswvEUyL7QkAiRvOmnnMD/MOtdeK+tmZbJzft20dhJKzIMDXKBGgjYDlzrJxfEFI1aY9nLECOkj8DIruL4huRrB3q7MqLeM4gxXcgDTz6UL8Q42ikqHhgddD+3pRE2CdlOkc9ek6+mk0t+MWGS42YRO3wihulYhVh+02cC2XQzOmQwfw6VPw3GLhFItraAbxeMMT0nV5oY7O8ONy5MqFggyyg6ggGCdRR3j+E2rOQy3zjIMqjXSYblG9Hll6DHaDtScTltXLdtkUzMXFg+5pot4Hxe3iMhFwTZjKqJlVQRAGpJIgRvSy4xm7+5mnNm1mJ/CtjswhFq/cBIKhR5aydf4KrINe0HEblxgLbBRGpG/P96wcPbuK4Y5XIO5/bmaq/O2fOpgZWABE8962+H8EdzoYEywmJnzj0ofJFSSbyx6tpspY3Dh1CmMoYtB5yCCOuxrLw3GlwQCpZtuJLeInU9SdelEnFuGGyBLZiw/ET/tQdxPh9wlWRSY9P3gc601gyW+L9qVxjWxiMOii2ZEO40PIgCYPlRAO24V57y0UYbLbeVjQDUg7Dc9dhQVj0v3WzXNXACxoIA2r7geE4i6Ctu2GB1JhOX+I6j0Boja8Fjq4VxuziUPc3EdwslRusjmDB3q2l65/Uh2MADny1nY89NKEuwnZ+9g1d2ZSzoPCNlIkgHXXfyq9xXtBdtjKFg89p57Qfun41tX6Zsk4xx+5ZUjKpc8temvPadvSk1xDEvcuOXZj4mMEmBJ5DlRbib9xizMJYzv1n16UGYic7TvmM/GszYo+Whr7j+VWuGYy7bcG1OflC5jt0gzVRf0P5VawF+8jA2S4bllEnbpB5Vzlo0jY7H3XbG2pLAFyXhd5kkNGwmv0BhPYFfn/sbmfG28xeA7FoGmoJObymJr9AYM+AUImCPbw/SW/uN+YpOcbwd22/0khW1WWzQCTHPT0px9vD9Jb+435ikzxfBXLbkuAAxzAZg0AyRsdNOVTJH3EYS5buILwMyp9qd4PU8iKbuG4hbUBcmumwEbZt+REbedJ69hXs3FFwagqYzA9DuPdRV2o7TYhHQWbhtqVMhQpnXckqSD6V1hJKOQexgXbIc6V1jhYnaKAuwnGsRdxWS5dZ1yMYIXeVHITTTRqtkUuJILWHuMoBIQ7+Yj9aHuCfSW3a4AzG4+rAbT+XlRXi8MLltrbEgMIMb0PXuzJVvo3eCCeUZt9YiPWvP9VwS5odYujpxzUZW0Q4zDqHTKgEzMAD8vPT31N2qvW4VGQZyoYXDsFnad9d6vYDBwGFzKkE5YKmV5MSwJmTE1Z4lhGujuyPBoZGXlGmuse18RWvpuCXFxqMnYck1KVpCK4qALziQfEdQdKIuxSPct4i0iqQwUliT4dxoBvTCv9jrDEtLDr7P6rQ3x7FJhbV21hsp8ILOY5egE8+XPeu3Q52UOJcGuWg9xQHlgSBpAH51q8L7UFh9VkOvMml4OKXmMNeYeZJj8BNTcMxjrfRe8zh3VJJJBzEDSeetcpccZSUmso0pNKgs43xZhlZ9cxgCdqzjjLhMAL7UDQ/vRHxTg0BQZJ1I8+W8QOZk1UscAuNO07jxLpPPeuyhLaM9kA/F3IuuJMA/oKK+yF9xhSykBhd7sE9HUHodjrPlUXFexl5rheDLCYBU7DlB12/GivgvZNLWHNvPnJfvJI55QAIkRt1qSkiwT9n8UzB9QRl1MQfCYH4zQ9xV2Nwx11np5edEPD+HtZJjYr4gEZRJO+pOo/ahzH/WN76mpekq8M0i5OpEe7y8vX8KEsUPpH+8fzor7u5zaR0nb8NaFcUPpH+8fzrMhIk/Q/lVrh/fZh3OfNOmSZmPKqy/oatYCxeZh3IfNyyGDty1rEtEjb7EW2bG2y5fKCxOmmgM5jOgnyOtPzB/VrSH7BWz88RnDwMxJB0Bgjxg6kTHvinxgfq1oQsEe3p8dv7jfmKTXF8E1u5qyHN4gEbNAOopydvvrLf3G/MUmuLYVbbmLqOWOY5NlJ1j3VMkR4zCNauBWZWOh8LSNQDvV/tKZZPun86oYvCrbuBVuI+3iTbXWrnaE+JPun86Y6JlvsPdZMUCiFzkbwj1FNWzjbu3d6awfFrHluJ86VfYW4y4sFVzHKRE+Y1n3U0sPjLh3tFZBgGSdjExpy/m9eiC/jowzaQ6a1IDVdG0qWawaMJsQe7dyp0MASIILcum/PyrYbFKqB2MSoPxHKsHiXasWyVyGRpIMgeumn41gcQ4rcupnGgid5922opbZlEvaHtFLuqKSrCZCFm8IWdQdBr+dZVq0CgJAJgzp1/Tyrrd7MviGZoJMDkDtoN9q3uFcI7wBm9mAQKOzeBMDD9n2uP4FRFManQab6Dfl8POjTg3AbFiCtpM8QXjU8/drV+3YCgADQVOgqE84nApcK5p8O0fmDyIqLF4I925zsdJgxBy6j0Hlzq6pqQGlSYUgcXCZ2RFcHLnBJMz5mOkfiKz7HA2F3P3j5icvdk+AA5fEBE8xrHWjWo3uqDBZQYmCRNKa0kFEHEbWa2w2nn6a0tMbZIcjP5evnvvTD4qlu5bILwDqCrAT4Tz6EE+6lxiLCByFfnA1Hp+tT0JXNkxGbp15e+hTFfWP94/nRV3a8mHLaOXKhTFD6R/vH86xITwtXOGYW7cYC0YflDZTsT+9UhVrAYQ3CArorcszZR8a5y0KN/sFaYYxGbVQGzDNtykj+rXl5zT4wR+jH850hewdsDGI0oYDgqd9iPD1M/gTT7wHsL6VlEwP7fnx2/uN+YpN8VsW0fwXA5OrEAgAknTXpTj7f+3b+435ik3xRLavFp2fm5ZY1O4AmdKXsiPFWUS4FS4Lg08QBA5T+OlW+P8AtJ939aqYlLS3ALbs66eJhBO3LlVvj/tp939aY6AvdhkzYqIJ8DbR5DnTNwuFYFc4EDeDv4Zk+eYjbpSx7Dq5xXgaDkbkDpp1/mgpr4UvBzx5Rz566ece6edd4X1MtFvCaAjozAfGrQNZvC7xZTJUmZ8O2vvOv+1XwaGsitGRjuC5y2UgZiWIO0md43Go+FQYjgQFtUUac8o6fv8Azet8GqmOvMBCiCRObT4AE+JvKpyKjE4d2cUMc4MEA6jUknUHy0XbzoitWQihVEACAKC+K9sbeFK2cz3HUy7DKYmPDOgJjpWbb+ULfNnMjTwpvm9elDlZJDIy19C0vh8o9sf0OfcvXTn0rrPyg22zKzXEzEAOFTw/E6esH0rPYRhCvSmqWBvEwJz+HMGHTz6Hp191ZvF8Td71VtuoGgYM6iZmMoOp1025VryyCGap4/D2mE3ACNNdZ0kjUa9azExF22G71pJGgDLvrrqdj4Rp0OlaFi+Im5cQ+KUgjaAB/mkn41pKsmW/CjesYVkZVYGNYzHQkH4aKR6A0C4pLeYwTA1Bk7AQPdApiY3CWkRn7tRAJJA5bn9fjS6xl+2XOvnBnTnS3egSK4Ccj0j3aD05UK4r6x/vH86KnZNuhgb7/ryoUxJ8bfeP51zkaRGKtYHCrcOU3EQ9XmNp3qqKt4DD27jZblzu5nxESu2k865zdI0jd7AqBjEIdSYYFY1OkeE9efpNPnBfVr6frSG7AKvztCGOYK8iNGG3u3B16U+sB7C+lCZMDPlA+st/cb86T3Fe5DxazwPaLRJPOBTg+UH6239w/wCqk9xS5ZLxaRlUe0WMknnqNP5tU9kjxi+67wC1myCILbnrp6zVnj3tp939ar4x7RuDulZU0gMfFymYnnNWOO+2n3f1pjoGXuw6M2KGVsvhM+YkaeXrTOw2HuBgWuyBuPfOvXpO4pYdirTNiYVivhJ056jQ6jSmfhcI4ZSbhIG41/DXblrMda7weDLLHBQMhImCxOvXmPSev7VpTVLAqADlAHjbb7xq3NEnbFElY/aXEslrwmMxifcTUqYp41nf7I5qTtO3lM/GqfalptKfOeh9k/CqSpEnYnOJNN1z1c/nVWrPEPrX++fPn151WrkJ1dXV1RDy7JPOFtak/Rp+CgVC622xLA93/SVOhYQ51UAaS+YEzy1rz2KVvmqEkxkSNPL8a1GwM3DcLbwIyiYU5gMxkxmJOnWui0BS48FLLojMIIDGCviIBXQyZJHlVhVtBVl2jKFEk7aQBp0j9694/hwuEMCqkcygPOdDuNd4OtWBhUgSJgACSdtPPTatRaSoGj7i/YI8qXePUF2kDfpTCxh8BpfYw+NvWstmjMuXVBiNduVCuK9tvvH86L7nM0H3/badNTRLRHgVbwC2WOW6XQa+NdY0009a8NhhlLK6sB6g/A17wFyzMXlYrr4kPiGmmnrFcpaFG92AVTi0jNnVWO+hGxnoNZ+FPnBfVr6UhuwDIcWgy+MKxUzvyMjnoToOlPnA/Vr6VImBXyhfW2/uH/VSg4ribbuO7thEXSASZjcz503vlD+st/cP+qlDxTFC4wK2lRF0CrMGNyT1NTWSR4xuIS5cBt2wiaQsz0G/rU/HD40+7+pqDG3+8uBhbCA5QqrsNhpNEOPxFqzb8ah3I8K6aebHl6CtR0DKfYq3mxG39DAGYg6GQetMvAYRrZJABmSQXPP/AC+UUv8AsdjM186IgCsxPkI+FMazfkjVTrBgHoT112rpFusAy5hkKjWJJY6eZmpb05DBgwYNeUNfbiZlKnmI0qsgbtu5sh1dgM7Aarm21k5dt9POan7VyLCDczBj7pBq1f4daVMpZ41bQidwNNP8Q/GqXadyLVvKhdBBLaEjQgf70ybayyQpcf8AWP8AeP51Xrc4jwl3c3EIKsZ1MEHciqw4Jd6L/d5T0rkJmV1aI4NcP2OX9X2tqtYDsxfunTIqiMzk6AEx01Oh0qIanZQf/Ftf9tP9IrUxOKS2MzsFB5nb48qo8FQW0FpVIVFVQTvoB7Q/pbnFU+1uCa9aVFRn8WoUiQNNdfStrRGvZ4haf2XU+/8AgqZL6nRWBPQH3fnQ3wLhj2YGRoCwDOuvLQx026mt3D4VVOaPFlAJn+c+daxVmc2esYYQ0vsW3jb1o94kAbbhjAIM+lLbG2LZuMQ0GTs3xqobIryDUz7v5/NKFcT7bepoluW1k+LXXnz50NYn229TWZERireBxNtdLtvOhnYw0xyPwqoKuYLFd2PHbFxDMgyBMaQw2NcpaNI3uwFwHFIpCyFYoec7HbfQnenzgvq19KQ/YK4fnKKw0Kv3ZI2IGsH0zU98D9WvpUiYEfKGfpbf/bP+qlNxq7ca4pe0LYgBUCwIHOPOmx8oh+lt/wDbP+qlHxRLwcNdzZzqA05gP6fSqWxR3Erlxroa4gQ+GEAgAQI05da98bPjX7v6mocelwXPpSxcwWze1yifdU3GvbX7v6mmP2gaHYnJ84OeIyHQ89RpHP0pkJctpkhgoLeGSdYB0APrPvpcdib2TEE5Sx7swBzMiB5etMMMLhWQRluCNdNifEI8tvXWu0FgyzZU17Bqk+PRWyk66Hl/UY5mrQuCiiPThTAYA7xI+NUMfigFOmZNBAWdZ9ZER05VX46lxwndrmIJmSABtrqfXrVI2L4VgEmRsGgbg+4iDrHPnTEGWsOUZZNpBqxUFdXAEz7Om/wipnS1r9Ha5Gcp2mCfZ5QfhVS3fvqqjuFMCD7O8CNZ6/pXs4m/r9Av/jvJ138x8TV+iX9lnE27NuM9uysxHhPnGuXyP415XF2ghyKkAiQsqZgxEiCeXvruIYXvimZJAkwGiDyOxnc/Go7PC3yEBgjEoZGvsgjbSNx7wa0kryT+Cxb4jEDKBP8Ai1k6mfP9as4bHZ2ywOexnb3RVQcNuf8AU9DB06ka8/09anwmDZHLFlI/pABGUdNWOn+1MutYBWaFdNeJr1XI2Q4xAyMDsd6XnEsKhuMcoGvL4UfY+4Ftsx5DlS8xeMTO0kgzzB/k0qyKt1U1HPX4xP6UMYn22+8aJrzoZMddY9R8KGcT7bepoloCMVf4fiXtAvkV01BVxK6jeOVUBV/h167bm5b1EEMIkaiDK+lcp6NI3ewTOuIQESjK0HfKQJ90gEe+ntgvq1+6KRHYAOuIX7DqwMHYjUT02j3098D9Wv3RRFEwG+UT623/ANs/6jSp41h7iXAty4HchZbNIE7CfKmr8oh+mT/t/wDsaUvFMB3Ti3mVnIBJBkeLYE0vYo7ilpkvZXfO4y52mZOnP8K9ca9tfuj8zUeOwgtXRbzBipWSpkSYOhqXjY+kX7o/M0x0DL/Ym4y4glVLHIQAPURJ5CmKLpJlhADCJBBjIxMz0PTSlz2MZxiD3YBbIdzoNV1PXlRrxlrhtjOAoziIPLId/OZrtDRlmJx3tNctlO7VGDLJNwE6iNgrKI1rKPbbGfaQeWQVFxjCXLmQKvsrB156ftWceEXfsj+4fvWG3ZG/ge2uKa4iMLZDOqk5WBhmAOzxOvTpR5g0a4zpchhbOqjZiZInQZgBy233pX8K4PeN62cmi3EZjI0CsCfypqW0JY3EOVidQYIZdImDpzg+ZrUXSZMuiykL4EhhIiJEdRGlc9pBrkX4Cs27xJkfJ3UmJlSI2B568xXgcZb/AKTHSdxtqP0qp+vImnfwVsmGRJ0IK8p6MIINdgWOVlYyUYrPUaET5wRPnNVcJi2uIGRVWZ31iPIb/GpMO5TwBSRm1YzLZtS20b8vXpSk6yBdrI47xR7ZS3ZAa7cPhB2AG5P861rk0ucTx3/5vfjxKpyqJ3UAjflMk++unDDs38GZypBPl4j9rD/jXrPxFdSth/IEiPOTFY3HcOLtv53h7jZTrcQMdJ3MTpHMe+vnZZ2t27uKdmKopVQSYJ0PXXWB7679MXj/AAx2zRq3sRjiIezaCzqc0x7p1ocxigu2gOtanZk3bi3L1y4zLqqgkxJ1JA6bD31kYxyLh0kTv8f2/EV5uVVKjcMqyjeZdRlE69Oh/b8qGcR7betE9y4SGkRoevnQvf8AaPrXNmjxWrwW3dJZrDxcCtK6arGsTodJrLFXcBgmuA90xzqCcswSsax7q5T0aRv9grZ74FH8OU94p/8AH8Yp7YH6tfuikT2BtfTh1bQKwdfX2Y98U9sD9Wv3RRH0mA/yhD6ZP+3/AOxpUY/hL23W3AZiAWK6r4vPb31+gONcCt4oLmJVl2ZYmDy13FYR+Tywf+Zc/wDH4bbVqsgJ29wh7d0JlnKVzMPZ5EwT6197RLFxfuD8zTl/4Cs/9a58F/agvth2BxJvL81ttcTuxLMyDxZm03HKPjStEC3Y3P8AODkIBKESQTGo1gdN6Yl3Cm6ArlvazTl28Lc42qv2R7F3MNZN66kXsxlZkhAIGxgzqY9K23WVIBIJBg10i8UDRk/8O2/tt+FeH7MIY8bDf8a0Fwr+H6VtAQdN94O+48P9p617XDPlANwkhpnXXXaJ2iml+SMa/wBmSFVbTqQCCc06gfEGYrR4dw1rbEkqQVgAe47REVZ+btAAaABA3+O+pP6V9TCkGS7HUndo5QInWIPxqpbsiriMExuM67xoZ20E+GPLU9Kjt8NZQ22oI1I0kk8x5+W1XLuFLT4ozA5t9Z258tPhUiWCNcxOmoJYg6GefmPhTaoKI+HYc20ySsSSMvQ+pJq8KophCIEgARGWRzkidzppvXpbD7F5Hv8APfXl0odP0S7+NfMPwtLhhbaeZyrH5VQt4Vx/zCdec9Z5eWkbUScHxCiUJgkyPPyob66ZbMPjPAmNo2wRbVz4iijXy5RtWVjOBFsOmHtvlUGXJGrbmf7taNOM31yBQQTM6coqthOFs65ics7CKY8skgcUzBtYNbNgW11Cjc8zzNBOKd+8bTSff502L3AcwI7yP8v+9YVzsDmJPf7/AOD/AO1Zc7dilSoXF9nymRpB/X9IoWv+03rTtb5PZBHzj/w/+1Cna35N7lm33thmvHN40CHNB/qUAnNruOnpQ3Yi8Qbx0NXcBw9rqnuyc6gnLMSoGsVv9kuyGIvYkJdtXrKZGOd7TASIgeIASZPwo7T5NQvs4kj/ACev+LzNZatEAvYHD/TB1JAyMHBGhn2Y99PTBfVr90VkYLs4ttVXPKrGkb++dJrdRAAANhQk0LPddXV1IHV8rq6oj5UJwdv/AKaf2iurqiPvzS39hP7RXfNLf2E/tFdXVEd80t/YT+0V3zS39hP7RXV1RHfNLf2F/tFd80t/YX+0V1dUR9+a2/sL/aK75rb+wv8AaK6uqI75rb+wv9orvmyfYX+0V1dUR8GFT7C/AVPXV1RHV1dXVEdXmurqiPVdXV1RHV1dXVEf/9k=;rotation=-90;" parent="1" vertex="1">
          <mxGeometry x="119" y="-760" width="95.37" height="111.96" as="geometry" />
        </mxCell>
        <mxCell id="6CbB4MI8648zA9k0CxYu-20" value="" style="shape=image;verticalLabelPosition=bottom;labelBackgroundColor=default;verticalAlign=top;aspect=fixed;imageAspect=0;image=data:image/jpeg,/9j/4AAQSkZJRgABAQAAAQABAAD/2wCEAAkGBxMTEhUTExMWFhUXFxcYFxgYGB0WFxgVGBgYGB0YGBcYHSggGBslGxcXITEhJSkrLi4uFx8zODMtNygtLisBCgoKDg0OGxAQGy8lICUtLS0tKy0tLS0tLS0tLS0tLS0tLS0tLS0tLS0tLS0tLS0tLS8tLS0tLS0tLS0tLS0tLf/AABEIAM0A9gMBIgACEQEDEQH/xAAcAAACAgMBAQAAAAAAAAAAAAAABgQFAQMHAgj/xABFEAACAAMFBAcGBAUDAQkBAAABAgADEQQFEiExBkFRYRMiMnGBkaFCUrHB0fBicoLhBxQjkrIVM6LSF0NEU3OTwuLxFv/EABkBAAMBAQEAAAAAAAAAAAAAAAACAwEEBf/EAC0RAAICAQMCBQIGAwAAAAAAAAABAhEDEiExBEETIjJRkWFxBSOh0fDxFFKB/9oADAMBAAIRAxEAPwDuEEEEaaEEEEABBBBAAQQQQAEEEEABBBES0Xgi76/DzgAlxhmA1hYtu0R0T/j/ANRyr4xVzbzmHeB5t9IVySBJvgdXtaDVh8fhGlr0lD2oR3tDnVj5D5CvrGmYhIIxOCQRUMaiopUZ6jWF8VG6WP3+qyve+/OPa3hLPtRxq7LvvATh01p/oqanCxxPTRQKdWu/PIV1hpDt7zeLE/ExrmkYos6CloQ6MPONsc9FqmDRq94/6aGJdnvmanMcj8j9YFNBTHeCKGx7QqaBtfI+R18IuJFqV9DDAboIII0AggggAIIIIACCCCAAggggAIIIIACCCCAAggggAIIIIACNNotKpqY0Xjb1lqSSBz+9TCnbLa0wmuS8OP5qfCFlJIEm+CyvG/K1C5+i/ufvKKKfOZu0a8t3gPrUxsZRSI1rtCSxidgo5nXkBviLlKQ6SRkxiKG1bRlqiQlaas2QHnkPExSWy3sf92dWm5frkPjDLE+4axzm22Uurr5xFmX9IHtE9whJkWtJjBJaF3O6pYnwX6ROew2gf+HAP4iiHymEGBqEeWaozlwhk/8A6KRxPlHpb/knefQfEwppLtBNBZwe4yz8GjzbmmSc59mdBxaWyr/dhC+salB8A4TXKHiRectva7sqjzFYkJMRuywPcQfhHNpFvkMeqxU8jX784tJM6ZkVZZnCuT+ByPkTG+Guwrk1yOzLu1Eb7Na3TQ1HAn4NqPWFWyX6wNGJB92Z8nAqPERe2W2pMy7LcDr4HQjuhdMohaY5XTfYfqnXgde8cRzHpF0jg6Rzog/eRB4gjSLq6b7KkLM097T+7h36d0PGd8itUNsEeJcwER7hwCCCCAAggggAIIIIACCCCAAggggAIIIIACIt4WxZalifr4DeY22meEBJNPpxhKvS8DNap0HZGnieZ9B4wspUgSsxarSZjlju0G4fvzjWy1OWseJJOmpOgEUV8XyXLSZDAKP96d7KjQqhG7dUZtuy1lGLkx20kb70vwI3RSR0k3fTNV41O+m/cN51EKt4WtQS85+lemleovLLt9woO8RDt95LLUy5YIXeT2nPFqbt4UZDLU9YrdonszbyTuGZ++UWSS4Jt+5OvG/WbIabsgAO4DJYoLRai2rV+EW8m5GbNzhHDf8AtE+TdaL2VFfM+cJKaJ+KuxQ3YXLqq1zIAGeYrXQZkR3kXc4lKxxZgaK6rpwmzc/BDHI7gsavbkVmCgEUxVzPABDX1EdvvayYVUyxhNO20gzJleCu71HdrzjlypPc9PFJ6Y78kG6bGSc5k1uHRrp3noAB4mPW1NikCQTOVyN9WCTD+pJgy71PdGq7WGMB5s/FlrLH/wAgfnF9fhdrM6qyElculAp/yVQPGFx+kbI6mv6Pmq+pElZhMguVro9MangSvVYcwB3CNdlvKYmjV5GJt63e4nssxQrA6Uw5chvEaHu8saDWOyD23OXqWlPYvLDtErgLNFe/Udx3RdWaYaVlnpE9w9ocxT4iEC1WJ5eZFR7w+cSLuvRpZ1NIopHOmnwdauW9gwwk1G4ntDk3Ec/OLkrHPbBbVm0ZSFmcdAx4HgecNty3qH6jZONxic4d0On7jPc16GUQrHqf4/8A1+Hdo3y3BFRHPiIutn7ywkS200U8D7vdw8uEEJdmDXcaYIwDGYoYEEEEABBBBAAQQQQAEEEEABGGagrGYq78tvRoeQr3nQDxPxgApto7yxHo65at8Qvz8ucUSmMTWJNSak5k8Sc9IjW+8BIlmYaVGSA73OlRvA1PcBvjntzkP6Uab7tbV/lpRAmMKznrlKl0qVJ3ZZt4KMyRCRtBeqy1EuWDh9kHVjoZr8zuG7TcSbqjj+gDWbNYGaScyxqQhO4LmzHccVezDZYdm5Lox6NGwCgZlqZk0Aag+ypYErxIBr0ZrSc1DZDY8erdnF5TM5A3sTmSO/7POGewXMJQ0JY6mnoOEW21ewbyVE1WLnV21JYHcNyglFAzq3hCq9stEkgOxK06y0AZaFgVr7Jy8qaHKJ+JewvUdHKavG7RbT3C5DMjXcB3n6RBYvM008l8t/rE275STVx5EAkAHTKmeeuv3rG60zEXX9z4QX7HCvI6rcqLuYyLVLbWuWVBru6wI8xHerbMrITFLfFhBAC9KviAVX0EcHNqdZiTkBXAcjUjI0yqNPAx2SZaE/lg0yYpJANJikv3f1JmL0iUlu/serhlqxxvszVdzlpnYmjullM+QM0DyiXtBe72eUxEqfMBBr2nA3ZhSTv0xLFFZL3kKxDzAADRgEm0yOi4BQeBEetr77syWWqzSwbRS1QabgszHnp7IPdCRTUWW8spo5JNYz7Q2CoUYiFNRQE6UNad3rFjZrIVBJ10A4DwiJdNqll3JQIToRUgVOmZJAy5xbTGABO7lnWLLZUeZ1uSUsrRGmSqihhevC68JxJpvH0+kWD22j5HrHy8eUXV37OTJxxlJmEEdIimpUe+u4rQqd2sbelm4OlnLdMTbHbGlMGGm8Q9XfaulUOp64zU8fwnmIef+ziySZLrM65OctqUmKaVqM+tzU1yFcopL7uiyyJLNZ5bKwKsesSuGgBZQdOPp7kOsqT3Op4lJeXcsrmvETVz7Q1Hziwp96QlWe2YWWcnIOO/f4/esOMmcHUMNDnGzjW6Ip9hwuC8OkSjHrLkfkfEeteEW0It22vopgbdo35Tv8Dn3V4w8I1RDxdoWqZ6ggghgCCCCAAggggAIIIIAMEwl7S2rE4WunWPqFHxPgIbbc9EPPKOe26Zjdm3FiBwoOqPA0r4xPI6ibFWzWp3ws3pbcdoJ1SRkBuaaTw7xXmJcXN52ropTPvAy793rSEW12vorOW30L573bqp8j4mMxLubLmi62emlprTB1ji6Na57x0h5lmwyxxAmjfHXrtCCWBWuGuEDMkjKtd5LMxB/FXdHFf4eXgrBQSFZaU7hQVPGp6aYeHRg746VZrSwYAA9YgDOhFagiu6gxLyKzTuEcryVNtnbLFcEkMyyS2ZAyphA3bhTu0U8cTaUig2j2ZlWtMFAuYZ2VQCUANFBpUAlU/Si8IsXvqXnLRsWYDsMgxOWFeWRHIKx3ZzJlqU9RDXexGRzp5MTQAbuqeFXuLJLXB2cGvO6rRd81qpRWyDHSlTTMZVyPlXSlcTCAKgY3OZJrhBpXvaOpbb2qQZTpNCnCMNaAlXZQcKVyDYKNX2QUrmFrzyQBSpIlSAQuGpJmH2VYE1c1plXLXXSkIurZDqUsjtbPuU8sMzjEvSnchJC15hM6chSJdp/mD25suUNAAQABwCqDQRGMsE0LAOm9GDZ6GjKaHLhGprEtc8zzzil0cazeGtNHrA261y/M/9Mb8M5kKzJaz5feCRzUqajvpERrGu9YJdkC5qSO47oLZq6n3R6shCA4VBRjWhzPLra1pHm20w1RiATmpOYPzjLsuJVZsKnVqVpFlZAiTpYny1YKVKsuWJQd+5gRlUisLzwPijqepjJsB/D/pk6a0DCoII/EOPLT/lXv6wipJUS5agEKBU8BpXiNfJuEU13X4k9AslcHR06la7uqOYZcgeIIOdK+2tVVxqcWEj/wBpxk3cCFB/XEXLS67noNOf29jdarWSwx5y3oOBR93cQcvKm+IV42BWVshiFa8DuLZaA6MBpWo3Ypc4BhQ5CYaV92ZSoPKtM+bARBNuGAOTR0xV4kywaim8lVdSOKjhCP6jR+hyqRL6Cc9neuEdmuvRsSKHdVWBXwB0MMuzdpIxSmOanLuhV27vqV/NyzLpQU6w3y3AGvIgD9C+NlZLRheXM/Q3hp6fCOyD1QOfMtMx1Yw27M2vHKAJqU6p8NP+JB8YUFNRFxszNwuw94eo+ZBP9sJB70JLgb4IwDGYsKEEEEABBBBAAQQQQAVV/wBowITwVm8QK/KEMZACukNW2DdQ/oHmw+sKhOcQzPeh4C7thNJCoN5H3/jCdtU9VVF0L/8AFBQffKGXaOZW0oPdz8hX5QrX4esvJPiSfnFYcCPkpbstbSSzLvVlHIkYSf7Sw8YfNltuCkmYJxrRSE94kip1/Ko75jHKEoySFy1pE7+QkmXLKzSWIONWQKFOWhGvdyiOTGpbl8PV6Y+bg63dN4S5oPRsMXVBoaDpGAqARphAwV3dQ8ayDanlqaUJyJ3AlqKK8B1kXkGH/lxxyVaJkrKU2QLHIallCnXXIRfyNqp8ykubkMyW4jC9fN3J5ZRzxwyUl7HS+oxyi2nv7MuLfaTaZxqx6NMRxHfU4mmEbiT1uVVGghTve2mexTo6KuHoqkgqlK1IrSrVBqd0MFqQiy4R2pzBD+XtN9IrZcku7NMzVFFTSlUlqFUHwCiu+O7lnlyyxUtL5NN3WDsChJY9RF7TH5DnF3/oVqbqmYsquiS82JArm2p0h32A2dFOlnAVIDHlXsoDuAFNOcN1r6NM+qKb6UoO/dBIak3Zxc7MzhhpPnVcEioqDTWoOncYrbTImycp6Ze+ooRnSrLwjtky3yz2WUtw3+HGFq+7GXdcEuqsDjbULTQU5wjNcVLk5ZbpIAzIodDuPMRtuR2dOhmDI1Mlj7w1UHgaRJva7sDtKAOE1aXl2XHaQHhy+kLU7Iq4NCrVB7sxBVoWGNQ3OgbM215c1CCVKnA4JoCjZEN3GjcRhNI6NZZlJoenVcMrKaDrnVSBlUnPvMzhHLiwLLNFMM1Q2tACRnr4+cap23k1w6YGGNUZDTSaApaoP4zM/u0zyllTdSR24GncWzol/X/Ls8idRg2DCQCe0DRxQ8Sp194rHJr82vnTpxMtiFZxMApozBQwpwqD31PGItrebOZnm1z3aDImneBU+FIzd93LQtvBp89PGFjj2uQ0+pjj2h8i7a5TCgIIpWlRu5Q83TNxWbXMKreKmh9Kws35KImIdxBAyocta8sxF/ssay6cQ481jqh2OOUtW50O7bRilI3FRFtdc2kxTzHr1fgTC3s1MrIHIkRcS3pnwz8ok9pjcxOiyGqojZEWwHq04RKi4iCCCCA0IIIIACCCCABV2y7H619KfOFSkN22C/02P4k9WUQpVjny8j4+BMvjO1+Df4tC9fY/qfpX/EQxX7la1PEEeYYfOKC+EqwP4AfLL5RaPAkiK65CJN2rJKzOl6Xpa1l4aYeABrujShqo7oLNaER1aYpdBiBUNhJNOPjC2Rxpt0S5Y1yiVbpAxAbsAEV820O/WlphQkhVJLUApUYqZ6jPvi3u9HdkM5CFZZiq1DTGiVAPiV84VSTYZejzJKRvu1mJAZiwUMVB3E0rSJN3yqrhoCXnSE7wXrTxoI9SlULLYADrsrU3h1DLXjmCILAxXpFGbLhmINKvJYPSo0qoaKR5OFpwzrU/5R1GwWnAAuQHrXuFABEa8LQJkzDnRaeLHOvkaeBiJZbYhGJWFCoYGppRhUdY6mm6IrThjxDI7xxA0IgPSNtqk5Vz7vGnnWLSzPVVYjNga8yDr6esVItJY0Fa8SAAPAHOLeUVKqBoBQH4mNSCxL25QKZbAjKarAbyWFD6GEGZZws5lK4lVzUVpUK2laHhTSHzbSZinylFMIrObSoSWCM+Fd3GkJVoetW3k18TnCN0yObM4VRIl2shcLSwwAogrhRRrQqubZ0p1vONF3WcdJpuPnSGD/TlCYWUYgi1bOuMrizp4CKK77QmInEOyfPSB7IxxyPbklXja5hlqrCleRBoMNNTv7t0eUVUqFrnrX9o2WmerS0CzWILKMAUKo0zNDn35x7CZVpU1qo4tTSFkzZ3aVi1tESZiEimRH3WLXZIZD8wFPOKO87Q8zoyy07VDxzFcuUMGyxoij8VfIH78YpFFY8Dbsp/tN+cxdHQ9x+EU2yw/ok8Wi4bQ9x+ETn6ysfSdCus9U+HzibEK7BkfCJsWEQQQQQAEEEEBoQRrnz1QVYgQrX1tvJlVCmphZTUeSkMU5vyon7VS6yn5Li8Vz+UIxb4xf7P3vMtYm9IpUZYa71INdc8qDzhcdCCQdQSD3g0PqIjldpM3Q4ScWLO1qYZkt+Y+X0hdv8A6vRt+dPWo/yhu2qs5eTX3c/v1hVvZOlsrEaqA4/T1W9KnwikH5RWtyiSa7dVBvofHKGvZPYWfbJTzV1UjJhruyrrlrwoOMN+xexUuXMmmb2ZkgFQcyk0EBqcaNmOKzF4x0SwGXLDLKUIuLHl7rk1JH4TjHIL3Rzuds6ko41UVv8AoU927EWeWgEwVws9TnmkxVy7wwXP8JjTtfda/wAuUkL2GLmmomFd35kLU5hBvi+mWpiWBzK0JXXHLf3eatiX9I96IEy0hTiBrgWj7w8g5hxxKjrcxi3igW0uECc5+p39DmFgoykGmeQ4BwaqTyrv4GK5LQ6zMRycNU8mBi72nuxrNPLAUlzCStOyDqUqN2dQd603qaRLRZhPXEhAmKMwcsaga8nHrl49V2tSPK6zpnLdconXbbkUUavQE4qCpNnc5k0GZlE51Gh7zFlOBIBXrKeyynEpHEEQgybeVYYSQeI4RtW88JJBKMdTKcy6n8Siqnyhk7DA5yj5h/sSEcaV0zP7RIvO+1kgLQtMbsylNZjeA7K8zw45QgpebHWdaM66TQuuZzVQc41NbCoYS1EsN2sPaauuJzmfhCt0GTNGGz5JN62xizl2DTJlOkK9lVFMMpPwigrxpvzJ13BdxnzQfYl0Z+fur3k5ecRLvsrT5qykKgmubGgAGpNfhD9YxIssqi5gak6zHOWKnoBuFd5JCpOTI408stcuCE9maZNVB2pjVJOlK6ngK514Aw6jZSymXQSgtQQtAAesnRrnuNOsfxVO4QrbHOz2k2iYlZdDXKoo1Vy4jtd4VveEdGadjIGagDfrmaacTmo724QmSSk6XY9aCljX3ON35/D+fZ5hMirS8Jao3KoLVI45ZDiaboW7Za5stGVkZXWgJ0AatN/dH0q6UhY2v2clWuWJUzq9YTHKgYqKpAFd+WQrwMJvE1uGX1Lf3PnG22lnIJoKYgABQDSuXOsNlzoVkhvwMfE9URU35sxPkTVRkIDOAu8VY5CvHqkfpMMU2XQCWN5CD8qZfGOrG1LdEMsNGwyXCmGSo45xZ2dauo4so8CRX0iNZkwqBwEWVyysU5eCgt6YR/l6RPmQcIe7uXqd8So1yFooEbIsIgggggA1T7QqCrECFK/duJcqqpmYWbdMtM/rTn6FDpi7Z7l+sV7TrPZ86Vb3nzbwXX4RBzk/oenh6RN7LU/px8kqdabXazUky0PHXy+sbrLd0iV1icbDVmIoDzY5LFGb+nT2wWeW0w92Q/SMv7iYmS9kJ8yjWyfgHuKcRHKnZESuMdz0P8TSvzpKK/1XJbXftXIW0S5atixMFJUUQE6ZnNs6DIDXfEraCz4JzcGow8ciB4iv6oLmuOShpZpGNh/3jdanichFvtDYWMkE0xyxU0z6p1p9+zGwyrInFHm9asUZrwlXZ3z9xRnSwylToRSEmyDo5jS23E5cQcj6Uh1WaK0BBI1oakeULm1tiKss9d3a/eGxunRySQ7bM2gvZ0IPXkHCTxwKAG51k9G3fIMMQAXrDRcRX8jUJU8gyjPgkzjHNNk72wODiwqwAYn2aElHP5GJr+Fnh9a09HhDUUM2GhOStpRj7uLq190k+2InkhpkdEZaoljP61CubKTSu8MBVW5MCni4PsxV223S0mCj4WB6tT7Rr1W5Eio/ErAZMIo521MuVPazPMCh5eFWY0IfrYGYneVIQncyivLnN93labXOYgOrUKzFXLEwObAa5hEJ4FYnvLgsoKCbk9v3Gna/aGXNTopdAHrLMs1IR1IBSoPVKlgyHlTTIUtquC0yrO0x2oBQFa1ahIGZA08eMUL0Uk4i0xjVmrvrXM+0awxq1vtqdqko5HRFNNa72+EXxxcFyefn6iObaCexDuCyAsswlsILg4RXRRqTl7Yy5GJM/ZlCG6O0AEkEdICCvEADqkeEUVhlzhOMqXjDBihw110OQ1joV67FWmSksiYjllBYEFSG4ZDMQ+uK7mY8EtK2FeVs2wpWdKFK1OImum7Kn7xZybikgUaYzkggYQFFeOevdBJuG2M1FlpXjiA/yIjdtRszbLNISakxcRJDqtMQ4YaEl/AQa4PewfSOUt1uJjTGRgQaMpyI3EZR5tV92iZNQs4wgg0qFGRGRrkNBGLOuIFnYCnarrXu4xDts1Tkq5A1JOpp8I1u1SOfE/BnTXB3LZa/R0KTHmSSzMRQdkMKVNcgyquEUWvZFTWsWUq1ETDNYliRWp036U0oAVH5WO/P54lW6aGyZsgANewDUKDuFc6d/GOj3P8AxCQNLkkFgAA0zSrUHZG4Cigf+mNxMckoyjt2PaWiauPLOoSL7pUsa0FSTlkK5ciT8/djbZav1ies1XYnIBQcq8ASK04KN9YVpVskz5eOXQgNRVBpjc8PwgClTuUnjGq8r9eUhlAYmZ1x4ajEcsMlOFd/AA76xkZtumJLEkrWxq21tCsy78FWXjiYYF8aAk/kB9qFi6ZIebXcgoO/f61j1ftuYsQWDNU1K9kzTQEqPdUAKvJRFlc1j6NBUZnMx3paIHBKWqRZ44YtkrJWr8SAO5a19SR+mFyQCzBRqSAO8x0K57MEQAaAACFxruLJ9ixEZjEZipgQQQQAcLst32+1GqqUU6uxI82OZ7oubHshZpXWtEwzn90ZLX4mHN7tmMtZswS1A0XMgfAesQhetks3ZFW3Fus5PEClQO4CPGy9Wlt/fwe7k/EZVUdl9Nv1PVgsc1lwyZSyZfEjD6amNzWOzSetOmdIRxNF8vqYoLftRPmdmkteLZtTko+Zik/mMTVAac+4t1s+Q0HgIlDHnzukq++/6cfJ5OXrK7/H7jhaNpWYUs6AJuY9RPDefARFuq96TcM6cHMygoBRQc+zv84pWsUxutaJolL7ozf9ojtfdns+UhAX0xt1nr3nTwj2ek/CXB+JN7+7/lI8+fVNul8IiX1su8i8RNkrSVMxPMIoAABmDxqStBxI4RNmWcOpVswRSGK75/8AOWcBxgnJuOvIkagEcflFG6FSQRTiN9YXNGpHbjdoQp8trLNwns1qD97onX5tDN/lylMUsqFr7Uth2a8RTq9wX3Vi/vi7lnphPaHZPAwmS2eUxlzByNdCvA8o1VNUxozlB2ika0NMbG7F2yzJ4b6fedTvi6sYRwjqpV5K55ospszR3ZqUPWAI9qgiNbLnBOOUKrWpG9T9OcF220ShMlzULI+GtDhZWQkggkEbyCCN/KG0VwQyTk5W2emsYk/7uRoCFGZYHMEEZUPGN0jamfLlmXLCKtajq1IB3Dd5iK62TxMaoGFQAqitaKBlU7zv8YLNZCwLE4UBoW1z4AbzCte5GFp7DT/DSbNa3oxZiXcls26xyrUD7zjse0b0fWmQ1anp0i/COIXDcJnW2XLkuUIwg1JrXUmo4fKO33zZ8MtJYmEMqgFukwk5b6htY58i8rPWi942Qbvajg4wuftM1Dyycxn+IM0fyT16Fh+KaVpkcxkanlEOwdMHUB011LqSR4yxWJm30uebG4lYGbeMKE05V3+sJjflY8lWWO587kZnIAbqfvEqyXY7leqQrGmI6aE+OQMbbPKAmhbQrDESDWoYYqDF4HPxi3tZRpyI6TGJpLL1KhHFFPRjSmWI98dcH5Tzuph+a2ygtVkTAJktmKlihqMJrSu4nIiK2bLI0y8Yv5zyElIrMXKtMqi5VauEFm3CijTPOKizyC7UpXgBnDVZOLlF2ifce0b2XNBV8xLrmqEimOntNpQaZeEOku1zklhp5pOKdVd8qWwzZzvnODnwB7opbrumXZT0kwBp/sqc1lfibi3Abt/CJNmlvaHqSaVqSdWPExscUYvUdM88pqiZctnMx8ZHVGQB+9Yv7WzCW5QVYIxUcWCmg848SECAKNIn3XYjOcKPE8B9eH7QkpamItkZ/hlcFA1pcszTOziJOW80OmdR3COnyloAIiXdZQiigoAKAcomxYmZjMYjMABBBGIAOP3ltHOmk1bCPdTXxb6UiFZbNMbNFpXVj8yfrEZLxky8kUzG40qK/CI9svmc3aZZa99T5CNw/hPT9OvO9/5/05JZsmXhF29mkpnOmYj7oOXn+0R5m0ORWzy6DiB8T9YVXtqE0UNNfxI8hF7duz1sn5zAJMrcCcP/ABGendHX40IKsUQWBv1v4IVsttamdN/SuZ89B6xm7VnziBZpRUb3Aq1Pzt2QeXlDZd2zFllEnCZznWtcP9vDvrDBLs0xgAAJa8FH0iE8spepl4QUdooWrguRrLM6Z5vXpQoprWuuInXdoN0Ml62ITlE2WOtTrDef3++ES7PdajPU8TnFjIsp3CIS82xVWhAK0ivvm60nrnkw0MOd9XMcyuupGleY5wtMhBzGkQcXFlU7EB1m2d6EHL4fMR6my5c8VWiP6H6Q8WuxJNWjivxHdCneuzUxTilnEOXapzG+KRnfIjQu2y73l6in36+Ea7FbmlMDU0rmAaA8jFjLvCZL6rjEN4Ir6HSPRWzTRmCh4jMeRh2rE0q7Lj+HFsAt0p3zq25cRqTwz9BHYdpbaqvmSMh7RX0I+ccd2VskqVPltMdXRWGozoDwP1EP1+7QyZr9Q9WlBXpRpx6NzXyjkyxlTSR343BuNvsWN3XnL6VauQOPSj1pMi02uvuVKs0x2mMBhOct3DV3AMqtQ84SLBfQWYCzS1UcFtDH5fGI+2t/C1yehGMioNSqyly75jufSFxRklVD5NGpOzm0q3SyXZ5RarVH9Q4h3kg1rv7ozMvWezPR2UOSSqk0z4eEbrPdAU1mzFody1OnM0iWlqkS8paYjxOefdpHZGOxw5alNsiWC4Zj9Zuom9my+/CLiXaZVnXDJHWOrntHko9nv1iDMts2ewGZO7efDhFrd+zrGjPl6mGtISiJZJDzmodK1/8A2GuzSgi4RG2zWVZYooHPie+PVlszTHoo/Yc4lKTkMlRsskhpjBVzJ+690dAuG6hLWn9x4mIuzlzBBp3tv7hDMq0FBFIxoVuz0BGYIIYwIIIIACCCCAD53lXXapmWIDkgr66RZWTYta1nOTyrUx0GzXKx7RoOC/WLWzXYiaDPjvgsNxYui5FlikmUE/ERn9YuZd017bE+gi7SRyiQlnjLbCkVsiwgZARKSyRPWVHsLBRpGl2YRvWVGyCNA0zrMrChH7Qq33cJ18mHzhwgIjGrA5Na7K8vUeO79oimZuMdOt9yq9cOR4HT9oUbz2dZK5FfVfv7pEnj9htXuKtssUqZ21B57/PWKO2bKqc0anI5+ohqmWJhqPLP9/SNGeghfMhrTEqZcM9eya9x+saGs1oX3q81yHlrDyx4x4YRqmwEcS55rmf7Tn9I9f6fPYDtk78qACHNVjyziN8RhQpy9nZzdogd5qfSLSxbOIubEsfIfWLesbJUotkAYNTZlIxIlIg6qhe7WN+OJFluZyc8oabn2doQ2H9TfKBQbFc0Ud33Q8yhaqrz1PcN3jDldNyqqjKg15nviystiVeZ4/QRLAisYpCtt8gigZCPceYzGgZggggAIIIIAAxiCCACCkqNySY3KsewIyjTyqR7ggjQCCCCA0IIIIACCCCAAjBEZggAr7Tc8p88NDxGXppFRa9lgTUEHvEM8EBlCHaNlW4HwMQn2ZYe95ftHRXWNDLGaUZuc9fZpj73l+0EvZZuDnwp8o6BSMgQaUG/uJtm2T/AO9jX0i3suzirqfAD5mL0CPVI2jKI1nsEtNFz4nMxKAgpHoRpoCPQjEZEABGYxGYACMxiCMAIIxGYACCMQQAf/9k=;" parent="1" vertex="1">
          <mxGeometry x="249" y="-739.17" width="94" height="78.33" as="geometry" />
        </mxCell>
        <mxCell id="6CbB4MI8648zA9k0CxYu-21" value="" style="shape=image;verticalLabelPosition=bottom;labelBackgroundColor=default;verticalAlign=top;aspect=fixed;imageAspect=0;image=data:image/jpeg,/9j/4AAQSkZJRgABAQAAAQABAAD/2wCEAAkGBxEQDxUPEBAVEhAVEhAWGBUQFxUVFxAQFxUXFhYYFRgYHSggGBslGxUVITEhJSkrLi4uGB8zODMsOCgtLysBCgoKDg0OFxAQGC8lIB0rLS0vKy02Ky03Ny0rNS0tKy43Kys3Ky0vLy0tKystLzItNzArLSstKy0tLSsrLSstN//AABEIALcBEwMBIgACEQEDEQH/xAAcAAEAAQUBAQAAAAAAAAAAAAAABQEDBAYHAgj/xAA/EAABAwIDBQQIAwYGAwAAAAABAAIDBBEFEiEGMUFRYSJxgZEHEzJCUqGx0WJywRQzkrLh8CMkQ1NzohZk0v/EABgBAQEBAQEAAAAAAAAAAAAAAAABAgME/8QAMREBAAIBAgELAgUFAAAAAAAAAAECEQMhMQQSQVFhcZGhsdHwFMEyM4Hh8RMiQqLS/9oADAMBAAIRAxEAPwDuKIiAiIgIiICIiAiIgIiICIiAiIgIiICIiAiIgIiICIiAiIgIiICIiAiIgIiICIiAiIgIiICIiAiIgIiICIiAiIgIiICIiAiIgIiICIiAiIgIiICIiAiKiAqqiIKoiICIiAiIgIiICIiAiIgIiICIiAiIgIiICK3LM1gu5waOpsoiv2ro4fbmHh/VcdTX0tPa1oj51N1pa3CE2i0Gs9KlE02Zd5/Dc/QLBf6USfYpnkcy231IXKeWU6K2n9J++G66FrcPng6Yi5nH6S3nfCR35fus+n9IAPtNt5fdZ+tjppbwj7S7fQa3V8/VvqLVqXbaB5sS2/fb6qcpsUieLh4Hfot05Zo2nm5xPVOY9XG/J9SnGGaisVFXHGzO97Ws5uIAWvzbVGW4o4w9v+9MfVxDuJ1d4L0zaI3mXKImeDZ15Eg4G/ctRifE54kq68yuaQRHDmZE0jdo3V3ifBT1LjEDzkjJJFtA0i/ddc66+naebW0TPfDU6dojMxKRRWY5wTYkXvuGtu9XV1YVRURUekRFAREQEREBERAREQEVHOAFybAcTwCtMqo3HK17S617AgkjnZBeREQERWqioZG0ve4NaN5OikzERmSIyurxLI1ou4ho5k2Wn7RbbNhjLowGjg+XTN+Vu895XK8V2jra11zK5sfMXFx+Eb7eS8tuUWt+XXPbO0e8+na9FNCZnfwjeXX8b27oqUHNIHO5DiVpeJek+aS4p4yBwsNf6fJaxgGyctQ7NFEXc5ZiQ3w5+C6DhOwELADO8yu+Edhg8BvWf6V7/jtM9kf2x5bz4us0pTjMR/tP/Mebn9VX11W6zpSL+7Hme/5bll0GwFRKczonHrUOy/8AUarr9JQxQjLFG1g5NACyF2poVp+GMd2znOtSOFc9tt/Lh5OfUHo6LR2pms6QsA+ZU3SbF07NSXPPN9itlWHV4rTxfvJ42d7h9FvmVhfqNe+0TPdH7Mb/AMfgtb1bfFrT+itP2eh4RR/wgfRYlXt3QR/6xf8AkaT81A4j6UoALQxm/OQtHkLpN6wfT608Yx37eqZrsAgAJfGGt533ea0iv2hp6OQtp5XSH4dMo7/7Cicf2uNYDnl7PCNrjd3g1v2UPBT7ner9WOGewc78rTdxPgud458TWa5jtWunp1nN7xt1TmfLLasPxF9ZK1ljLK65a0kCNvG4G7x1W3RbI1kn7yeOPuzvI/lVz0ZYIYYXTSxBkkhGXN7Yj6k7r8ui3MixWY5Jp2nnXjMt35XjbTiIj515azS7BN/1KuV3/GGs+ZuVMYfspSQvEgY58g3Ole51ja24m3yUmxyuBy7xp0jhDhblOraMc7w29HtjQ0WaAB0Fl6ureZLrbguXReEVF5ERQEREBERAREQF5e8DesaatANm6nnwH3Vj1l+pQYe1EbJomRuLwwzMzBhy522d2T0vY+AWiS1QbXRsYC1sU0bWm5zWzDefErZX4Sacl/r3yiSeM5ZLHJ7Z0PH2vktBxWe2JEf+wz+YLE8W4dyRRQnc3c7TkVejxIe8LdRqtsPeJVwhZcNLnk2a0b3H9Auc7SY+4PIBE045/uoOjRxPU6rdsamuC+KzjkcB+EniVzaoxH1UjnS05Y437WW4PUEaX+a8U2rfVmtp3jhE+uOn7PRWYpXM8Ov7Z6EKMOfPL6yoc57ydLi5J5MZw7z8lvuA7JMsHzMAGlo99/8Akd7x6blB4TtFRwuzuBLubuA6LYIvSBQ8XkeA+69MRHSt9a9q4rGI7Pm7bIow0ANAAHAcF6utSqfSBRhpMbsz+Ad2R4nVadiu0z6q4mrMkf8At04LRb8TjqVqbdTnXTid7Tjznw98Og4xtdR0ukkwc/4I+06/gtVrtv6mQH9lpsjPjm/rYLT/ANppm6RENPNoBce9ziT81ciw51SbMilmJ/Mfvb5Lnaeu2HSLxX8vSme23t/K5iWN1EmtTiDWj4WutbwbYfNRcYhkcGtdLM8nQRtPaPS1yVu2B+jSV5DpY46ZncHyH62810XAtnaaibaGMZravdq93jw7gs106zvvPf7FuUasxibY7I/ZzbCfRlLOzPI0QA7hKS5/i1p08TdSsXogp/fnJ/Ky38ziukl6tyTgcV3iIjg80xE7y0ql9FOHM1d6x56uDR/1AU9h+zVDS6w0zGu+IjM7+J1ysybEGDisCoxMHRqbKuGpAfa6yxKOagIqZ73ZtVKQ0Z43RWUJhwV1jiV4jp7cFkNjKqKtavYaqtavSI82RekQekREBERARFGY1jcVK27zmeR2WN3nv5Dqgz6idsbS97g1o4laviG0XrDlZdrOfF32C1rEcdkqHZpDYDc0ey3u69VjtqQplcNogrArk2Nxx6auPJvDvPBar+1G9m8t/wBlTfv+SCamxx0z42ZA1pmZxJOl1zfaWYsxKXmJ2n+UqelxpkWIQUrhYuIkz7gADa3jqta2pi9ZiM7w5rWCQFznGwAytPe479ACsTxajg6ezaJ1+2wH8un1WUMUY4XB15HQhaTgWKOqo85YWdpzbG5tY89FJNuD4rbKblreRWM6e+8XWB66xItuP9QVQynmueppU1IxesT3tVtau8Szm0lM7eGtP44mP+YstQxPFy+Z1LFRiRhcGguiERkd+FuUnxUrXVT2AFsZk1N8u8eCkvX5JA+IkZcpaTYkEgXGm/iFw+k0sbZjum3u1GreJzE+UPeF+jGKSMPqQIpDqY4u1k6Fx0J7gpml9GuGs3xuf+Z32AUzR4vHJC2XMO0NbH3ho4eYK8yY1GNxv3LrXQ068POZn1bnlOrP+T1SbN0MP7uljHe3N/NdSbHBos0ADkBb6KEOMg7mlUGJvO5q6RFY4Q5TNp4ym3TLDqMSa3jcrALZpOgV2LBjvJVZWZcTe/2RYK0I3O9pxKl4sLaFlx0rRwQQkWH34LPgw0DgpIMAVVcC1HABwVwNCqiqFlVURAREQUREQekREBERBr21uPmla1kY/wAV4JBO5jRoTbidVz2CoE9SIpJbSyH2n3Nza4vbXgfJdD2lwqOokjMl+y147JsbOtuNjxAK1at2TeDmgkDzwa+zH36G+Vx7ipKwgXusSORI04ryZl5raWSJ2WVjmHk4EX7uaxiVFUqsW9XNGLaZSCPiN76dfsp4sc0BzmEBwBFwRcEab1qtbhzprWFzfcuzbOxtfRxxyNDrMaCH9rUDqr0I5rVUTKh8YeCLPbYi4I11sR9N25a1j2zUYrH5nOc0Eb3C5042AXaMXwWBjDLHFZ7QXDIXHUDTs317lzp8xnlLnQyOcSPYpphqO8qY3XLKpY7ABosABu4K3X1hhY59r5d592Pq8/pvKn8Pw2V4FqWU/wDMRC0d40JHSxV/aDZd9TC2KQtDGkO9XEMrARuuPet1VRqdFiHrImOJ7RFyTv15+AWQJQrdRgb4dBewUdU1AibmkNh9TwAHE9FJgSxkABJIAAvc8B1WHBnq/YLo6XjINHz9I/hZ+LeeHNecOwqSotJVtLIrgtgO9/IzfXJ5qdmlawAucGi7Wi+mpNgAguU1CG5Y425Y2tAa1u4BTVJQH4Vm4LT2iBcLE3Ou+3BSjLBOauWHT4YOKkIqRjeCq169gq4TK41oG4L0vAK9AqoqqqiqgKqoqoCIiCiIiAiIgoiIg9IiICIiCOxUatPePosIlRXpJxqeljjMIBLhKe0L3e0CwPmd3Jc5G29UJPXMeHRvDXercMzG9kCzRe7d3A7yVJWHWn2c3I4BzD7jwHN8ju8LKIrNl6aTVmaF34e2z+E6jwKg8K9IEElmztMLuY7bPMat8vFbXS1jJG543te0+8whw8woMPDNm/Vm/ZeObdfPiFslOzKLDRYDX8ePPj5rJjq3cbO79D5j7K5MJBq9rGiq2Hjl/N99yuzsLmODXZHFrgHAA5SRo6x0Njqqi4Qrb2qE2cw2tgzCqqhM3OCDqTlykEdr2dbHedyxdpdqxE79mow2erI74qZvxzOHyYNT0QW9rsSgpWgOaZah9xHBHbPKef4Wji46BahRYY71n7TVZXz+61n7umB4MB3u5vOvcsykpPVudLI901TJYyTP9p/JrRuYwcGjQKL2g2gZTjKLPlO5vw8i/kOm8/NRWZjGLMp253nU3ytG9x6fdaJPjEs87ZHnQHstbuZfTTmeqj6ysfM8ySOLnHnwHIch0Uns/hD5XNld2Ymuadf9Qgg2A5ab0HZtlqx0tHG9wIdYjtbyGkgHxAClgVFbOn/LNPV/8xUmFUX2OV1pWO1XmILzSvYVtqutQelVUVUBVREBERAVFVEFEREBERBVERAREQRG0lBHPG1srA9odexJFjYjQjXiuMbUbMOppX+ohkNMLOa7VwjzauBdyDr7+BC7lig/w78iPJQjipKw4Ir9JVyQuzxSOY7mwkedt/cV1XFtl6SouTFkeffi7JvzI3O8QtPxPYSdl3QObM3l7D/I6HwPgorKwr0hTMs2oYJW/E3sP79OyfktxwnamkqLBkoa8+5J2HX5C+h8CVx2qp5InZJGOY7k4EHyKs3QfQjXLzVOPqnNa9zLtOrLAjuuCL9VxfC9p6un0jmJaPck7bfC+o8CF0zZ/aCKupg5j2+uyduMHtRv49km+W+48kEZJgMB1e6WTpJNKR5ZrLIhpIoW5YmBgOpt7x6nee8q8+436d/DvWq7bbTQsidTxSNkme0tPqyCImnQlxG423DegsbS7UiMuigIdJuL94j6N5u+QWiSSkkuJJJNySbknqeKo0EkNaCSdABvJ6KcoMMbD/iS2Mm8DeGfc/31VQwfCAbSzjs7ww8eRd06KflxNrbN7gA3f3AKDnq3yOyMBJPAf3uWx7PYJZwe/tP58B0CDf8AZd3+VjBGU2JseFyT+qmmNUZhkdmgKXiaqirWK61q9NavYago1q9gKoCrZAAVURAREQEREBERAVFVUQEREFUREBERAIWFPhjHajsnpu8lmog1+pw2Rutsw5t+ywiOHFbarM9Kx/tNBPPcfNTC5anVUsczcksbZG8ngHyvu8FqeLbBQvu6neYj8Lu2z/6HzXRp8HI1Y6/R2/zUXPC5mjgWnruPcorj2JbN1VOCXxFzB78faaBzNtW+ICgKvAa5rG1LKSUxOF2ysAIy/EbG7R1NrrvgbrdJrCMtsMuUi1tALbrbkHza+KpkNi17zyJc77qXwvZere0vcwMAGme4LjyGi7DnANhYDkNLeSi8eqLAHoUyNVpaFlM2+jpLau5dG8h9VikvnfkYO88GjqsiOCSpfZmjL6u/Qcyt0wLZ4MAAbYfU8yqiMwLAgwbrk7yd5/p0W64bhtraLNocMDeCmIaayqLNPT2CzWRr2yNXAEHlrV6sqogIiICIiAiIgIiICIiAqKqoUBERBVERAREQEREBERAVHNBFiLjkVVEEfPhMbtW9k9N3ko2tw2RrHWGbsm2XXhyWxKjtymFy5yMOmJ0if/A79RZWKzZKpqnNDm+qiA1uRmf0ABNh13ro1l7aEwZaxheyscLQ0AaKcgoA3gs8BVVRaZCArgCqiAiIgIiICIiAiIgIiICIiAiIgKiqqICIiCqIiAiIgIiICIiAiIgIiIKWVURAREQEREBERAREQEREBERAREQEREBERAVERAREQf/Z;clipPath=inset(33.06% 43.09% 6.83% 11.45%);" parent="1" vertex="1">
          <mxGeometry x="629" y="-743.1800000000001" width="89.01" height="78.33" as="geometry" />
        </mxCell>
        <mxCell id="6CbB4MI8648zA9k0CxYu-27" value="&lt;b&gt;Closed Loop&lt;/b&gt;" style="text;strokeColor=none;align=center;fillColor=none;html=1;verticalAlign=middle;whiteSpace=wrap;rounded=0;" parent="1" vertex="1">
          <mxGeometry x="174" y="-650" width="90" height="20" as="geometry" />
        </mxCell>
        <mxCell id="6CbB4MI8648zA9k0CxYu-29" value="&lt;b&gt;Open Loop&lt;/b&gt;" style="text;strokeColor=none;align=center;fillColor=none;html=1;verticalAlign=middle;whiteSpace=wrap;rounded=0;" parent="1" vertex="1">
          <mxGeometry x="554" y="-650" width="70" height="20" as="geometry" />
        </mxCell>
      </root>
    </mxGraphModel>
  </diagram>
</mxfile>
